<svg width="266" height="50" viewBox="0 0 266 50" fill="none" xmlns="http://www.w3.org/2000/svg">
<path d="M212.697 1H52.1176L28.9375 25L52.1176 49H212.697L236.938 25L224.817 13L212.697 1Z" fill="black" fill-opacity="0.36" stroke="#F1A738" stroke-width="2"/>
<path d="M237.062 24.875H265.062" stroke="#F1A738" stroke-width="2"/>
<path d="M0.9375 25H28.9375" stroke="url(#paint0_linear_103_320)" stroke-width="2"/>
<path d="M87.276 18.744V23.188L87.43 23.342V19.338L87.276 18.744ZM91.346 28.182L91.192 28.028L91.126 28.006C91.1113 28.006 91.0967 28.0133 91.082 28.028C91.0673 28.028 91.0527 28.028 91.038 28.028L90.818 29.744C90.7887 30.404 90.73 31.0347 90.642 31.636C90.5687 32.2227 90.444 32.6333 90.268 32.868L90.136 32.714V32.78C90.136 32.912 90.1873 33.0293 90.29 33.132C90.4073 33.2347 90.466 33.3593 90.466 33.506C90.466 33.682 90.444 33.858 90.4 34.034C90.356 34.2247 90.2753 34.4007 90.158 34.562C90.158 34.5033 90.114 34.3787 90.026 34.188C89.9527 34.012 89.8573 33.8213 89.74 33.616C89.6227 33.4253 89.5053 33.2493 89.388 33.088C89.2707 32.9413 89.1753 32.868 89.102 32.868C89.014 32.868 88.97 32.89 88.97 32.934L88.662 33.814C88.6473 33.7847 88.6033 33.7113 88.53 33.594C88.4567 33.4767 88.4053 33.4033 88.376 33.374C88.376 33.374 88.3613 33.3667 88.332 33.352C88.3173 33.352 88.3027 33.352 88.288 33.352C88.2733 33.352 88.2587 33.352 88.244 33.352C88.2293 33.3667 88.222 33.374 88.222 33.374L87.782 33.814C87.7527 33.4767 87.7087 33.11 87.65 32.714C87.606 32.318 87.5547 31.9147 87.496 31.504C87.452 31.0787 87.408 30.6607 87.364 30.25C87.3347 29.8247 87.32 29.4213 87.32 29.04L86.726 28.27C86.726 28.1967 86.7187 28.0867 86.704 27.94C86.704 27.7933 86.704 27.7053 86.704 27.676C86.6747 27.1187 86.66 26.5467 86.66 25.96C86.6747 25.3733 86.66 24.7867 86.616 24.2C86.528 24.112 86.4327 24.068 86.33 24.068C86.33 23.7893 86.3227 23.518 86.308 23.254C86.308 22.99 86.3007 22.7187 86.286 22.44C86.286 22.4253 86.2787 22.4107 86.264 22.396C86.264 22.3813 86.264 22.3593 86.264 22.33C86.2493 22.1393 86.242 21.824 86.242 21.384C86.2567 20.9293 86.2713 20.4527 86.286 19.954C86.3153 19.4407 86.3373 18.964 86.352 18.524C86.3813 18.0693 86.396 17.754 86.396 17.578V17.138C86.396 17.0793 86.4253 17.0133 86.484 16.94C86.5573 16.852 86.638 16.7713 86.726 16.698C86.814 16.61 86.9093 16.5367 87.012 16.478C87.1147 16.4047 87.2027 16.346 87.276 16.302L87.958 15.972L93.832 15.928C94.5067 15.928 95.13 16.0673 95.702 16.346C96.2887 16.61 96.7947 16.984 97.22 17.468C97.6453 17.9373 97.9753 18.4947 98.21 19.14C98.4447 19.7707 98.5547 20.4527 98.54 21.186C98.5253 21.6553 98.452 22.1173 98.32 22.572C98.2027 23.012 98.0267 23.4227 97.792 23.804C97.5573 24.1853 97.2713 24.53 96.934 24.838C96.5967 25.146 96.208 25.3953 95.768 25.586C95.4013 25.8353 95.0493 26.0847 94.712 26.334C94.3893 26.5833 94.0593 26.796 93.722 26.972C93.3993 27.148 93.0547 27.2727 92.688 27.346C92.336 27.4047 91.9473 27.368 91.522 27.236C91.522 27.236 91.478 27.1407 91.39 26.95C91.302 26.7447 91.2213 26.5613 91.148 26.4L91.346 28.182ZM91.324 23.254C91.28 23.254 91.214 23.3053 91.126 23.408C91.0527 23.496 91.016 23.5693 91.016 23.628C91.016 23.6573 90.9793 23.7013 90.906 23.76C90.8473 23.8187 90.7813 23.8773 90.708 23.936C90.6347 23.98 90.5687 24.024 90.51 24.068C90.4513 24.112 90.4367 24.134 90.466 24.134C90.4807 24.134 90.5393 24.1193 90.642 24.09C90.7447 24.0607 90.8547 24.0313 90.972 24.002C91.0893 23.9727 91.1993 23.9507 91.302 23.936C91.4047 23.9213 91.456 23.9287 91.456 23.958C91.456 23.9873 91.4633 24.0093 91.478 24.024V24.156C91.5953 24.3173 91.676 24.4273 91.72 24.486C91.764 24.5447 91.7933 24.5813 91.808 24.596C91.8227 24.596 91.8227 24.5887 91.808 24.574C91.808 24.5447 91.808 24.53 91.808 24.53L92.336 24.442C92.3507 24.442 92.336 24.442 92.292 24.442C92.248 24.4273 92.1893 24.4127 92.116 24.398C92.0427 24.3687 91.962 24.332 91.874 24.288C91.8007 24.244 91.742 24.1853 91.698 24.112H91.764C92.0427 24.112 92.2993 24.0313 92.534 23.87C92.7833 23.694 92.996 23.4813 93.172 23.232C93.348 22.9827 93.48 22.7187 93.568 22.44C93.6707 22.1467 93.722 21.8827 93.722 21.648C93.722 21.4573 93.6853 21.252 93.612 21.032C93.5533 20.812 93.4653 20.614 93.348 20.438C93.2307 20.2473 93.0767 20.0933 92.886 19.976C92.71 19.8587 92.512 19.8 92.292 19.8H92.204C92.1893 19.8 92.138 19.8147 92.05 19.844C91.962 19.8587 91.8667 19.8807 91.764 19.91C91.6613 19.9393 91.566 19.9687 91.478 19.998C91.39 20.0273 91.3387 20.0493 91.324 20.064C91.324 20.0933 91.3167 20.1593 91.302 20.262C91.2873 20.35 91.2653 20.4527 91.236 20.57C91.2213 20.6727 91.2067 20.7753 91.192 20.878C91.1773 20.9807 91.17 21.054 91.17 21.098C91.17 21.186 91.1847 21.3473 91.214 21.582C91.2433 21.802 91.2727 22.0293 91.302 22.264C91.3313 22.4987 91.3533 22.7113 91.368 22.902C91.3827 23.0927 91.368 23.21 91.324 23.254ZM96.142 18.018C96.142 18.018 96.164 18.0473 96.208 18.106C96.252 18.1647 96.3033 18.2233 96.362 18.282C96.4207 18.3407 96.472 18.392 96.516 18.436C96.5747 18.48 96.6113 18.502 96.626 18.502C96.7873 18.414 96.9487 18.4287 97.11 18.546C97.286 18.6487 97.44 18.788 97.572 18.964C97.7187 19.14 97.8287 19.316 97.902 19.492C97.99 19.668 98.0267 19.778 98.012 19.822C98.012 19.6753 97.9753 19.5067 97.902 19.316C97.8287 19.1253 97.726 18.9493 97.594 18.788C97.4767 18.612 97.3447 18.4653 97.198 18.348C97.0513 18.2307 96.912 18.172 96.78 18.172C96.7507 18.172 96.6993 18.1573 96.626 18.128C96.5673 18.0987 96.5013 18.0693 96.428 18.04C96.3693 17.996 96.3107 17.974 96.252 17.974C96.1933 17.9593 96.1567 17.974 96.142 18.018ZM89.08 30.932H88.926C88.9113 30.9467 88.86 31.02 88.772 31.152C88.684 31.284 88.5813 31.4527 88.464 31.658C88.3467 31.8487 88.2587 32.0027 88.2 32.12C88.1707 32.1493 88.1413 32.2007 88.112 32.274C88.0827 32.3327 88.0607 32.3767 88.046 32.406H88.112C88.244 32.406 88.3613 32.3473 88.464 32.23C88.5813 32.1127 88.684 31.9733 88.772 31.812C88.86 31.6507 88.926 31.4893 88.97 31.328C89.0287 31.1667 89.0653 31.0347 89.08 30.932ZM92.644 16.654H92.336C92.2627 16.654 92.1453 16.6613 91.984 16.676C91.8373 16.676 91.676 16.6833 91.5 16.698C91.324 16.7127 91.1553 16.7273 90.994 16.742C90.8473 16.7567 90.7447 16.7713 90.686 16.786H93.656C93.4213 16.7127 93.2453 16.676 93.128 16.676C93.0107 16.6613 92.8493 16.654 92.644 16.654ZM91.808 26.07L92.952 25.74H93.392C93.3627 25.652 93.3187 25.6007 93.26 25.586C93.216 25.5713 93.1647 25.564 93.106 25.564C93.0767 25.564 93.0473 25.5713 93.018 25.586C92.9887 25.586 92.9667 25.586 92.952 25.586L91.808 26.07ZM91.478 23.87V24.024C91.4927 24.0827 91.566 24.112 91.698 24.112C91.6833 24.0973 91.6687 24.0827 91.654 24.068C91.654 24.0533 91.6467 24.0387 91.632 24.024C91.632 23.9213 91.5807 23.87 91.478 23.87ZM89.74 28.908C89.7253 28.908 89.7033 28.9813 89.674 29.128C89.6447 29.2747 89.608 29.436 89.564 29.612C89.5347 29.788 89.5053 29.9493 89.476 30.096C89.4613 30.228 89.454 30.2793 89.454 30.25V30.448C89.454 30.5507 89.454 30.6607 89.454 30.778C89.4687 30.8807 89.476 30.9833 89.476 31.086V31.284L89.608 31.13C89.6373 30.778 89.696 30.4187 89.784 30.052C89.8867 29.6707 89.938 29.304 89.938 28.952C89.938 28.8787 89.9307 28.864 89.916 28.908C89.9013 28.9373 89.8427 28.9373 89.74 28.908ZM99.5752 31.768L99.4432 32.824L104.679 33.176H105.141C105.288 33.176 105.442 33.1613 105.603 33.132C105.765 33.1173 105.919 33.0807 106.065 33.022C106.212 32.978 106.329 32.912 106.417 32.824C106.52 32.7213 106.571 32.5967 106.571 32.45L106.549 32.406C106.52 32.362 106.439 32.2813 106.307 32.164C106.19 32.032 106.109 31.9513 106.065 31.922L106.681 31.636L105.911 30.998C105.926 30.9833 105.97 30.9173 106.043 30.8C106.131 30.6827 106.219 30.5507 106.307 30.404C106.395 30.2573 106.476 30.1253 106.549 30.008C106.623 29.8907 106.659 29.8173 106.659 29.788C106.659 29.7293 106.623 29.6853 106.549 29.656C106.476 29.612 106.388 29.5827 106.285 29.568C106.183 29.5387 106.073 29.524 105.955 29.524C105.838 29.5093 105.743 29.502 105.669 29.502H103.051C103.11 28.5047 103.176 27.6833 103.249 27.038C103.337 26.3927 103.425 25.85 103.513 25.41C103.601 24.9553 103.689 24.5593 103.777 24.222C103.865 23.87 103.953 23.5033 104.041 23.122L104.019 22.044C104.019 21.78 104.034 21.516 104.063 21.252C104.107 20.988 104.195 20.7313 104.327 20.482C104.371 20.042 104.423 19.602 104.481 19.162C104.54 18.7073 104.591 18.282 104.635 17.886C104.679 17.49 104.716 17.138 104.745 16.83C104.789 16.522 104.811 16.28 104.811 16.104C104.811 15.928 104.789 15.84 104.745 15.84L104.195 15.994H100.235H99.6412C99.4505 15.994 99.2745 16.0967 99.1132 16.302V17.116L99.2672 24.464C99.2672 24.5373 99.3332 24.618 99.4652 24.706C99.5972 24.7793 99.6632 24.86 99.6632 24.948C99.6632 25.0067 99.6339 25.058 99.5752 25.102C99.5312 25.146 99.4285 25.2047 99.2672 25.278L99.4432 25.432L99.5752 31.768ZM101.643 31.658V31.922C101.643 31.922 101.607 31.9293 101.533 31.944C101.46 31.9587 101.372 31.9733 101.269 31.988C101.181 32.0027 101.086 32.0173 100.983 32.032C100.881 32.0467 100.785 32.0613 100.697 32.076H100.367C100.441 31.9147 100.587 31.8047 100.807 31.746C101.027 31.6873 101.218 31.658 101.379 31.658H101.643ZM104.789 31.46L105.097 31.812L103.029 31.878L104.789 31.46ZM100.543 17.138C100.543 17.006 100.551 16.9033 100.565 16.83C100.595 16.7567 100.69 16.6833 100.851 16.61L100.873 16.962V17.644C100.873 17.8933 100.866 18.172 100.851 18.48C100.851 18.788 100.844 19.0887 100.829 19.382C100.829 19.6607 100.815 19.91 100.785 20.13C100.771 20.3353 100.749 20.4673 100.719 20.526C100.69 20.4527 100.661 20.2473 100.631 19.91C100.617 19.5727 100.602 19.2133 100.587 18.832C100.573 18.436 100.558 18.0767 100.543 17.754C100.543 17.4167 100.543 17.2113 100.543 17.138ZM108.134 31.834C108.134 31.922 108.148 32.0467 108.178 32.208C108.207 32.3693 108.236 32.538 108.266 32.714C108.31 32.89 108.346 33.0513 108.376 33.198C108.405 33.3593 108.427 33.484 108.442 33.572C108.456 33.6013 108.478 33.6747 108.508 33.792C108.552 33.9093 108.581 33.9827 108.596 34.012C108.625 33.9827 108.654 33.9093 108.684 33.792C108.728 33.6747 108.75 33.6013 108.75 33.572C108.764 33.528 108.786 33.4033 108.816 33.198C108.845 32.9927 108.867 32.7727 108.882 32.538C108.911 32.3033 108.94 32.0833 108.97 31.878C108.999 31.6727 109.021 31.548 109.036 31.504C109.05 31.4013 109.08 31.262 109.124 31.086C109.182 30.91 109.234 30.7633 109.278 30.646C109.322 30.5287 109.344 30.4627 109.344 30.448H109.454C109.454 30.5067 109.461 30.6093 109.476 30.756C109.505 30.9027 109.512 30.998 109.498 31.042C109.498 31.1007 109.468 31.2327 109.41 31.438C109.366 31.6287 109.344 31.746 109.344 31.79C109.344 31.8193 109.358 31.8853 109.388 31.988C109.432 32.0907 109.468 32.1713 109.498 32.23L110.092 33.418C110.312 33.2713 110.466 33.0073 110.554 32.626C110.642 32.23 110.715 31.8267 110.774 31.416C110.847 31.0053 110.935 30.646 111.038 30.338C111.14 30.0153 111.316 29.854 111.566 29.854H114.69L115.13 31.944C115.232 31.9733 115.372 32.0613 115.548 32.208C115.738 32.3547 115.929 32.5087 116.12 32.67C116.31 32.8167 116.479 32.9413 116.626 33.044C116.787 33.1467 116.882 33.176 116.912 33.132L117.22 32.538V30.162C117.396 30.4553 117.506 30.7193 117.55 30.954C117.594 31.174 117.645 31.3793 117.704 31.57C117.762 31.746 117.858 31.9293 117.99 32.12C118.122 32.296 118.356 32.4867 118.694 32.692C118.738 32.7213 118.833 32.7947 118.98 32.912C119.141 33.0147 119.244 33.088 119.288 33.132C119.288 33.1173 119.288 33.0953 119.288 33.066C119.302 33.0367 119.31 33.0073 119.31 32.978C119.31 32.846 119.273 32.7507 119.2 32.692C119.141 32.6187 119.075 32.5527 119.002 32.494C118.928 32.4353 118.855 32.384 118.782 32.34C118.723 32.2813 118.694 32.2007 118.694 32.098C118.694 32.0247 118.708 31.9513 118.738 31.878C118.767 31.8047 118.826 31.768 118.914 31.768C118.928 31.768 118.943 31.7753 118.958 31.79C118.987 31.79 119.002 31.79 119.002 31.79C119.046 31.8193 119.141 31.8707 119.288 31.944C119.434 32.0173 119.537 32.0687 119.596 32.098C119.698 32.0833 119.75 32.0173 119.75 31.9V31.614C119.75 31.5847 119.742 31.5333 119.728 31.46C119.728 31.3867 119.728 31.35 119.728 31.35L118.694 27.478V26.004L117.066 16.94C117.051 16.8227 117.014 16.698 116.956 16.566C116.897 16.4193 116.824 16.2873 116.736 16.17C116.648 16.0527 116.538 15.9573 116.406 15.884C116.288 15.796 116.164 15.752 116.032 15.752C115.87 15.752 115.716 15.8033 115.57 15.906C115.438 16.0087 115.291 16.06 115.13 16.06C115.056 16.06 114.998 16.0527 114.954 16.038C114.91 16.0233 114.866 16.0087 114.822 15.994C114.792 15.9647 114.748 15.9427 114.69 15.928C114.646 15.8987 114.572 15.884 114.47 15.884C114.367 15.884 114.242 15.8913 114.096 15.906C113.964 15.9207 113.817 15.9353 113.656 15.95C113.509 15.9647 113.37 15.9867 113.238 16.016C113.106 16.0307 112.996 16.0453 112.908 16.06C112.761 16.0893 112.614 16.1627 112.468 16.28C112.321 16.3827 112.182 16.5 112.05 16.632C111.918 16.7493 111.8 16.8593 111.698 16.962C111.61 17.05 111.544 17.094 111.5 17.094H111.412C111.412 17.05 111.404 16.9693 111.39 16.852C111.39 16.7347 111.375 16.6173 111.346 16.5C111.316 16.368 111.272 16.258 111.214 16.17C111.155 16.0673 111.074 16.016 110.972 16.016C110.957 16.016 110.928 16.0233 110.884 16.038C110.854 16.0527 110.832 16.06 110.818 16.06C110.788 16.1333 110.737 16.28 110.664 16.5C110.59 16.7053 110.51 16.9253 110.422 17.16C110.348 17.3947 110.275 17.622 110.202 17.842C110.143 18.0473 110.106 18.194 110.092 18.282C110.048 18.4873 109.974 18.7953 109.872 19.206C109.769 19.6167 109.652 20.0787 109.52 20.592C109.402 21.1053 109.27 21.648 109.124 22.22C108.977 22.792 108.838 23.3347 108.706 23.848C108.588 24.3613 108.478 24.8233 108.376 25.234C108.273 25.6447 108.2 25.9527 108.156 26.158C108.141 26.598 108.082 27.0307 107.98 27.456C107.892 27.8813 107.789 28.3067 107.672 28.732C107.569 29.1573 107.474 29.59 107.386 30.03C107.298 30.4553 107.254 30.8953 107.254 31.35V31.79L107.826 31.526C107.826 31.526 107.833 31.526 107.848 31.526C107.877 31.5113 107.899 31.504 107.914 31.504L107.98 31.526C108.009 31.5553 108.038 31.6067 108.068 31.68C108.097 31.7533 108.119 31.8047 108.134 31.834ZM111.742 26.488C111.888 25.608 112.094 24.7133 112.358 23.804C112.622 22.8947 112.9 22.044 113.194 21.252L113.348 21.406L114.382 26.158L114.404 26.488C113.978 26.5467 113.612 26.5907 113.304 26.62C113.01 26.6347 112.673 26.642 112.292 26.642C112.248 26.642 112.152 26.6493 112.006 26.664C111.859 26.664 111.771 26.6053 111.742 26.488ZM116.318 17.842C116.332 17.842 116.347 17.842 116.362 17.842C116.376 17.8273 116.391 17.82 116.406 17.82C116.508 17.82 116.596 17.974 116.67 18.282C116.758 18.5753 116.831 18.9127 116.89 19.294C116.948 19.6607 116.992 20.0127 117.022 20.35C117.051 20.6873 117.066 20.8853 117.066 20.944C117.066 20.9733 117.044 21.0027 117 21.032C116.97 21.0467 116.941 21.0687 116.912 21.098C116.912 21.098 116.897 21.1053 116.868 21.12C116.838 21.1347 116.824 21.1273 116.824 21.098C116.809 20.966 116.78 20.7607 116.736 20.482C116.706 20.1887 116.662 19.8733 116.604 19.536C116.56 19.1987 116.508 18.876 116.45 18.568C116.406 18.26 116.362 18.018 116.318 17.842ZM108.86 26.972V27.148C108.86 27.2213 108.86 27.3093 108.86 27.412C108.874 27.5147 108.882 27.61 108.882 27.698V27.852V28.094C108.882 28.1967 108.874 28.292 108.86 28.38C108.86 28.468 108.86 28.5487 108.86 28.622V28.754C108.86 28.8713 108.838 29.0253 108.794 29.216C108.764 29.4067 108.735 29.502 108.706 29.502H108.574V29.348L108.706 27.126L108.86 26.972ZM126.795 24.024L126.311 23.364C126.267 23.3053 126.245 23.3493 126.245 23.496C126.26 23.628 126.275 23.804 126.289 24.024C126.319 24.2293 126.341 24.4347 126.355 24.64C126.385 24.8307 126.385 24.9553 126.355 25.014C126.223 25.234 126.143 25.4393 126.113 25.63C126.084 25.806 126.018 25.9747 125.915 26.136L125.893 26.906L125.365 31.988C125.351 32.12 125.314 32.2593 125.255 32.406C125.197 32.538 125.123 32.6627 125.035 32.78C124.947 32.8973 124.845 32.9927 124.727 33.066C124.61 33.154 124.485 33.198 124.353 33.198C124.177 33.198 124.031 33.1393 123.913 33.022C123.811 32.9193 123.679 32.868 123.517 32.868C123.371 32.868 123.187 32.9267 122.967 33.044C122.762 33.176 122.571 33.264 122.395 33.308L121.757 25.278L120.833 23.408C120.672 23.1587 120.525 22.88 120.393 22.572C120.276 22.264 120.166 21.9707 120.063 21.692C119.961 21.3987 119.865 21.142 119.777 20.922C119.704 20.6873 119.623 20.526 119.535 20.438C119.477 20.3793 119.396 20.262 119.293 20.086C119.205 19.91 119.11 19.7193 119.007 19.514C118.905 19.3087 118.809 19.118 118.721 18.942C118.633 18.7513 118.567 18.6193 118.523 18.546C118.523 18.5313 118.487 18.4287 118.413 18.238C118.355 18.0327 118.289 17.8127 118.215 17.578C118.142 17.3287 118.069 17.1013 117.995 16.896C117.937 16.6907 117.907 16.5807 117.907 16.566C117.907 16.3607 117.988 16.236 118.149 16.192C118.311 16.1333 118.501 16.1187 118.721 16.148C118.956 16.1627 119.205 16.1993 119.469 16.258C119.748 16.302 119.997 16.324 120.217 16.324H120.305C120.305 16.4413 120.298 16.566 120.283 16.698C120.283 16.83 120.291 16.9547 120.305 17.072C120.32 17.1893 120.349 17.292 120.393 17.38C120.452 17.4533 120.547 17.49 120.679 17.49C120.694 17.49 120.709 17.49 120.723 17.49C120.738 17.4753 120.753 17.468 120.767 17.468C120.694 17.3507 120.657 17.27 120.657 17.226C120.657 17.1233 120.694 17.05 120.767 17.006C120.841 16.962 120.877 16.852 120.877 16.676C120.877 16.4707 120.921 16.3607 121.009 16.346C121.097 16.3167 121.237 16.302 121.427 16.302C121.574 16.302 121.713 16.2873 121.845 16.258C121.977 16.214 122.095 16.1847 122.197 16.17C122.315 16.1407 122.425 16.1333 122.527 16.148C122.63 16.1627 122.718 16.2213 122.791 16.324C122.835 16.3973 122.909 16.6467 123.011 17.072C123.129 17.4827 123.246 17.9447 123.363 18.458C123.495 18.9713 123.62 19.4773 123.737 19.976C123.869 20.4747 123.979 20.8413 124.067 21.076L125.343 16.104C125.343 16.0747 125.358 16.0747 125.387 16.104C125.431 16.1187 125.468 16.126 125.497 16.126L126.839 16.28H126.993C127.155 16.28 127.287 16.2287 127.389 16.126C127.492 16.0233 127.624 15.972 127.785 15.972C127.932 15.972 128.057 16.0013 128.159 16.06C128.277 16.104 128.401 16.126 128.533 16.126C128.636 16.126 128.724 16.104 128.797 16.06C128.871 16.0013 128.959 15.972 129.061 15.972C129.091 15.972 129.12 15.9793 129.149 15.994C129.193 15.994 129.215 15.994 129.215 15.994C129.259 16.0233 129.355 16.1113 129.501 16.258C129.663 16.4047 129.765 16.5147 129.809 16.588C129.839 16.5587 129.883 16.5293 129.941 16.5C130.015 16.456 130.066 16.434 130.095 16.434H130.161C130.279 16.434 130.352 16.4707 130.381 16.544C130.425 16.6173 130.433 16.6907 130.403 16.764L126.795 24.024ZM126.575 19.624C126.575 19.5653 126.575 19.4627 126.575 19.316C126.59 19.1693 126.605 19.0227 126.619 18.876C126.634 18.7147 126.649 18.568 126.663 18.436C126.693 18.2893 126.715 18.1867 126.729 18.128C126.729 18.0987 126.751 18.0033 126.795 17.842C126.854 17.666 126.883 17.5633 126.883 17.534C126.883 17.446 126.847 17.3947 126.773 17.38C126.7 17.3653 126.634 17.358 126.575 17.358C126.517 17.358 126.487 17.402 126.487 17.49C126.487 17.5047 126.48 17.534 126.465 17.578C126.465 17.622 126.458 17.6807 126.443 17.754V17.908C126.443 17.9813 126.436 18.0547 126.421 18.128C126.421 18.2013 126.421 18.2747 126.421 18.348V18.502C126.421 18.7807 126.399 18.9933 126.355 19.14C126.326 19.2867 126.355 19.492 126.443 19.756L126.575 19.624ZM122.813 26.73C122.784 26.8327 122.784 27.0013 122.813 27.236C122.843 27.456 122.879 27.698 122.923 27.962C122.967 28.2113 123.011 28.4533 123.055 28.688C123.099 28.908 123.121 29.0693 123.121 29.172C123.195 29.172 123.239 29.0913 123.253 28.93C123.268 28.754 123.261 28.5633 123.231 28.358C123.217 28.138 123.195 27.9327 123.165 27.742C123.136 27.5367 123.121 27.3973 123.121 27.324V27.236L122.901 26.796C122.887 26.7813 122.872 26.774 122.857 26.774C122.843 26.7593 122.828 26.7447 122.813 26.73ZM121.911 22.022C121.823 22.022 121.779 22.066 121.779 22.154C121.779 22.1833 121.794 22.2273 121.823 22.286C121.853 22.3447 121.882 22.418 121.911 22.506C121.926 22.4033 121.977 22.3373 122.065 22.308C122.065 22.2933 122.109 22.374 122.197 22.55C122.285 22.726 122.381 22.924 122.483 23.144C122.601 23.364 122.703 23.5693 122.791 23.76C122.894 23.936 122.945 24.024 122.945 24.024C122.945 24.0387 122.923 23.958 122.879 23.782C122.85 23.606 122.799 23.408 122.725 23.188C122.652 22.9533 122.542 22.726 122.395 22.506C122.263 22.2713 122.102 22.11 121.911 22.022ZM123.275 30.646C123.246 30.6167 123.231 30.668 123.231 30.8V30.91C123.231 30.954 123.246 30.9613 123.275 30.932C123.334 30.9173 123.363 30.8733 123.363 30.8C123.363 30.6973 123.334 30.646 123.275 30.646ZM145.909 31.218C145.924 31.262 145.946 31.35 145.975 31.482C146.005 31.614 146.027 31.7533 146.041 31.9C146.071 32.032 146.1 32.164 146.129 32.296C146.159 32.428 146.181 32.516 146.195 32.56C146.21 32.5893 146.239 32.67 146.283 32.802C146.327 32.934 146.371 33.0733 146.415 33.22C146.474 33.3667 146.533 33.506 146.591 33.638C146.665 33.77 146.731 33.8507 146.789 33.88C146.819 33.836 146.855 33.7333 146.899 33.572C146.943 33.4253 146.987 33.286 147.031 33.154C147.061 33.0807 147.09 33.0147 147.119 32.956C147.163 32.8827 147.207 32.846 147.251 32.846C147.251 32.846 147.259 32.846 147.273 32.846C147.303 32.8313 147.325 32.824 147.339 32.824C147.457 32.824 147.537 32.9047 147.581 33.066C147.625 33.242 147.662 33.3667 147.691 33.44L147.845 33.154L148.879 22.902V22.748C148.894 22.6747 148.923 22.4913 148.967 22.198C149.011 21.9047 149.055 21.5967 149.099 21.274C149.143 20.9367 149.187 20.6213 149.231 20.328C149.275 20.0347 149.305 19.8513 149.319 19.778C149.349 19.514 149.371 19.2133 149.385 18.876C149.415 18.5387 149.437 18.194 149.451 17.842C149.481 17.49 149.495 17.1453 149.495 16.808C149.51 16.456 149.517 16.1407 149.517 15.862C149.473 15.862 149.393 15.8693 149.275 15.884C149.158 15.884 149.033 15.8913 148.901 15.906C148.769 15.906 148.645 15.9133 148.527 15.928C148.41 15.928 148.329 15.928 148.285 15.928C148.256 15.928 148.183 15.95 148.065 15.994C147.948 16.038 147.875 16.06 147.845 16.06C147.787 16.06 147.655 16.038 147.449 15.994C147.259 15.95 147.141 15.928 147.097 15.928H146.877C146.569 15.928 146.313 15.972 146.107 16.06C145.917 16.1333 145.755 16.2213 145.623 16.324C145.506 16.412 145.418 16.5 145.359 16.588C145.301 16.6613 145.264 16.698 145.249 16.698C145.235 16.698 145.213 16.6907 145.183 16.676C145.169 16.6613 145.161 16.654 145.161 16.654L144.875 16.06C144.875 16.06 144.868 16.06 144.853 16.06C144.839 16.0453 144.824 16.038 144.809 16.038C144.677 16.038 144.604 16.104 144.589 16.236C144.575 16.3533 144.567 16.456 144.567 16.544C144.567 17.8347 144.582 19.0887 144.611 20.306C144.641 21.5233 144.655 22.7773 144.655 24.068C144.655 24.0973 144.626 24.1047 144.567 24.09C144.523 24.0607 144.472 24.0093 144.413 23.936C143.753 22.616 143.152 21.3327 142.609 20.086C142.081 18.8247 141.649 17.4827 141.311 16.06L141.157 15.928H139.815C139.801 15.928 139.771 15.9867 139.727 16.104C139.698 16.2067 139.676 16.2947 139.661 16.368C139.661 16.412 139.661 16.4927 139.661 16.61C139.676 16.7127 139.683 16.83 139.683 16.962C139.698 17.094 139.705 17.2187 139.705 17.336C139.72 17.4387 139.727 17.512 139.727 17.556H139.529C139.441 17.2627 139.353 17.0133 139.265 16.808C139.177 16.6027 139.067 16.434 138.935 16.302C138.803 16.17 138.627 16.0747 138.407 16.016C138.202 15.9573 137.931 15.928 137.593 15.928C137.52 15.928 137.454 15.9353 137.395 15.95C137.351 15.95 137.315 15.9867 137.285 16.06V16.566C137.285 17.666 137.315 18.7587 137.373 19.844C137.447 20.9147 137.483 22 137.483 23.1C137.586 23.1 137.681 23.1367 137.769 23.21C137.857 23.2833 137.894 23.3787 137.879 23.496C137.894 23.5693 137.909 23.694 137.923 23.87C137.953 24.046 137.975 24.2367 137.989 24.442C138.004 24.6473 138.011 24.8453 138.011 25.036C138.026 25.212 138.033 25.344 138.033 25.432V25.674V26.07V26.51V26.752C138.033 26.8693 138.055 27.0233 138.099 27.214C138.143 27.4047 138.173 27.5 138.187 27.5H138.429V25.432L138.627 25.564V27.346C138.525 27.4487 138.473 27.5587 138.473 27.676V28.006C138.473 28.3873 138.488 28.7907 138.517 29.216C138.561 29.6267 138.605 30.0447 138.649 30.47C138.708 30.8953 138.759 31.3133 138.803 31.724C138.862 32.12 138.906 32.494 138.935 32.846L139.375 32.406C139.375 32.406 139.383 32.406 139.397 32.406C139.412 32.3913 139.427 32.384 139.441 32.384C139.456 32.384 139.471 32.3913 139.485 32.406C139.515 32.406 139.529 32.406 139.529 32.406C139.559 32.4353 139.61 32.5087 139.683 32.626C139.757 32.7433 139.801 32.8167 139.815 32.846L140.123 31.966C140.123 31.922 140.167 31.9 140.255 31.9C140.329 31.9 140.424 31.9807 140.541 32.142C140.659 32.2887 140.776 32.4647 140.893 32.67C141.011 32.8607 141.106 33.044 141.179 33.22C141.267 33.4107 141.311 33.5353 141.311 33.594C141.429 33.4327 141.509 33.2567 141.553 33.066C141.597 32.89 141.619 32.714 141.619 32.538C141.619 32.3913 141.561 32.2667 141.443 32.164C141.341 32.0613 141.289 31.944 141.289 31.812C141.289 31.7973 141.289 31.768 141.289 31.724C141.304 31.68 141.311 31.658 141.311 31.658L141.443 31.372C141.458 31.284 141.487 31.1447 141.531 30.954C141.575 30.7487 141.619 30.5433 141.663 30.338C141.722 30.1327 141.773 29.942 141.817 29.766C141.861 29.59 141.891 29.48 141.905 29.436L142.191 27.06C142.206 27.06 142.221 27.06 142.235 27.06C142.25 27.0453 142.265 27.038 142.279 27.038L142.345 27.06L142.499 27.214C142.558 27.2873 142.661 27.434 142.807 27.654C142.954 27.8593 143.101 28.0793 143.247 28.314C143.409 28.5487 143.555 28.776 143.687 28.996C143.834 29.2013 143.929 29.348 143.973 29.436L144.127 29.722L145.315 32.692L145.469 32.846C145.528 32.7287 145.572 32.5893 145.601 32.428C145.645 32.252 145.675 32.076 145.689 31.9C145.719 31.724 145.733 31.5627 145.733 31.416C145.748 31.2547 145.755 31.1373 145.755 31.064L145.909 31.218ZM140.849 29.282C140.849 29.3113 140.849 29.3627 140.849 29.436C140.864 29.5093 140.871 29.5607 140.871 29.59C140.871 29.7367 140.864 29.8613 140.849 29.964C140.835 30.052 140.791 30.1693 140.717 30.316C140.717 30.2867 140.71 30.2133 140.695 30.096C140.695 29.9787 140.695 29.9053 140.695 29.876C140.695 29.8467 140.688 29.7513 140.673 29.59C140.673 29.414 140.732 29.3113 140.849 29.282ZM142.631 22.902C142.734 22.902 142.785 22.9533 142.785 23.056C142.829 23.1147 142.903 23.2393 143.005 23.43C143.123 23.606 143.196 23.7233 143.225 23.782C143.284 23.8993 143.35 24.0387 143.423 24.2C143.511 24.3613 143.592 24.5227 143.665 24.684C143.753 24.8453 143.827 24.9847 143.885 25.102C143.944 25.2193 143.973 25.278 143.973 25.278L144.809 26.752C144.751 26.708 144.648 26.598 144.501 26.422C144.369 26.2313 144.223 26.0333 144.061 25.828C143.915 25.608 143.775 25.4027 143.643 25.212C143.511 25.0213 143.423 24.8967 143.379 24.838C143.321 24.7207 143.247 24.574 143.159 24.398C143.086 24.2073 143.005 24.024 142.917 23.848C142.844 23.672 142.778 23.518 142.719 23.386C142.661 23.254 142.631 23.188 142.631 23.188V22.902ZM142.499 22.594C142.573 22.594 142.609 22.6453 142.609 22.748C142.609 22.8507 142.573 22.902 142.499 22.902C142.426 22.902 142.389 22.8507 142.389 22.748C142.389 22.6453 142.426 22.594 142.499 22.594ZM146.063 19.03V20.966L145.909 21.12V20.526C145.909 20.2327 145.917 19.9833 145.931 19.778C145.946 19.5727 145.99 19.3233 146.063 19.03ZM155.092 33.88C155.018 33.88 154.982 33.924 154.982 34.012C154.982 34.1147 155.018 34.166 155.092 34.166C155.18 34.166 155.224 34.1147 155.224 34.012C155.224 33.924 155.18 33.88 155.092 33.88ZM156.28 33.132C156.206 33.1907 156.118 33.2273 156.016 33.242C155.913 33.2567 155.81 33.2713 155.708 33.286C155.605 33.3153 155.517 33.352 155.444 33.396C155.385 33.44 155.356 33.5207 155.356 33.638C155.356 33.6673 155.363 33.704 155.378 33.748C155.392 33.8067 155.4 33.8507 155.4 33.88C156.676 33.5573 157.783 33.154 158.722 32.67C159.675 32.186 160.467 31.5847 161.098 30.866C161.728 30.1327 162.198 29.26 162.506 28.248C162.814 27.2213 162.968 26.004 162.968 24.596C162.968 23.9507 162.894 23.2907 162.748 22.616C162.616 21.9267 162.418 21.252 162.154 20.592C161.89 19.932 161.56 19.3087 161.164 18.722C160.768 18.1353 160.306 17.622 159.778 17.182C159.264 16.742 158.692 16.3973 158.062 16.148C157.431 15.884 156.742 15.752 155.994 15.752C155.524 15.752 155.165 15.84 154.916 16.016C154.666 16.192 154.476 16.39 154.344 16.61C154.226 16.8153 154.138 17.0133 154.08 17.204C154.036 17.3947 153.977 17.5047 153.904 17.534C153.625 17.6513 153.383 17.7467 153.178 17.82C152.987 17.8787 152.789 18.0327 152.584 18.282C151.66 19.382 150.956 20.5993 150.472 21.934C149.988 23.2687 149.746 24.6693 149.746 26.136C149.746 26.6933 149.812 27.258 149.944 27.83C150.076 28.3873 150.259 28.93 150.494 29.458C150.743 29.986 151.044 30.4773 151.396 30.932C151.748 31.3867 152.144 31.7753 152.584 32.098C152.921 32.3327 153.244 32.516 153.552 32.648C153.86 32.7653 154.175 32.9267 154.498 33.132H156.28ZM162.088 27.346C162.088 27.3753 162.088 27.434 162.088 27.522C162.102 27.61 162.11 27.6687 162.11 27.698C162.11 28.182 162.022 28.6807 161.846 29.194C161.684 29.7073 161.413 30.1253 161.032 30.448V30.36V30.316L161.34 29.568C161.369 29.48 161.42 29.3333 161.494 29.128C161.567 28.9227 161.64 28.7027 161.714 28.468C161.787 28.2187 161.86 27.9913 161.934 27.786C162.007 27.5807 162.058 27.434 162.088 27.346ZM154.366 25.85C154.366 24.9407 154.556 24.1047 154.938 23.342C155.334 22.5647 155.781 21.8167 156.28 21.098L156.434 20.944C156.434 20.944 156.441 20.944 156.456 20.944C156.485 20.9293 156.507 20.922 156.522 20.922L156.588 20.944C156.925 21.208 157.196 21.516 157.402 21.868C157.622 22.2053 157.79 22.5647 157.908 22.946C158.04 23.3273 158.128 23.7233 158.172 24.134C158.216 24.53 158.238 24.926 158.238 25.322V25.586C158.238 25.7033 158.23 25.828 158.216 25.96C158.216 26.092 158.216 26.2167 158.216 26.334V26.598C158.113 26.9793 157.981 27.3753 157.82 27.786C157.658 28.182 157.446 28.5267 157.182 28.82C157.138 28.8787 157.072 28.952 156.984 29.04C156.91 29.1133 156.83 29.194 156.742 29.282C156.654 29.3553 156.58 29.4213 156.522 29.48C156.463 29.5387 156.434 29.568 156.434 29.568L156.258 30.316C156.258 30.316 156.221 30.2427 156.148 30.096C156.089 29.9493 156.008 29.788 155.906 29.612C155.818 29.4213 155.722 29.238 155.62 29.062C155.532 28.8713 155.458 28.7393 155.4 28.666C155.048 28.2847 154.784 27.852 154.608 27.368C154.446 26.8693 154.366 26.3633 154.366 25.85ZM150.648 27.346V26.884C150.736 27.1627 150.802 27.4413 150.846 27.72C150.904 27.9987 150.934 28.2847 150.934 28.578V28.82C150.787 28.6147 150.699 28.38 150.67 28.116C150.655 27.8373 150.648 27.5807 150.648 27.346ZM157.622 21.538C157.622 21.494 157.658 21.4207 157.732 21.318C157.805 21.2007 157.871 21.1273 157.93 21.098C157.974 21.0687 158.032 21.076 158.106 21.12C158.179 21.1493 158.216 21.1933 158.216 21.252C158.421 21.5453 158.553 21.8093 158.612 22.044C158.685 22.2787 158.722 22.5573 158.722 22.88C158.722 22.9387 158.714 23.0193 158.7 23.122C158.685 23.2247 158.67 23.2907 158.656 23.32L158.524 23.474L158.062 21.846C158.032 21.7727 157.959 21.7067 157.842 21.648C157.739 21.5747 157.666 21.538 157.622 21.538ZM161.626 20.35C161.714 20.35 161.758 20.4013 161.758 20.504C161.758 20.5333 161.772 20.6507 161.802 20.856C161.831 21.0467 161.853 21.2593 161.868 21.494C161.897 21.714 161.919 21.9193 161.934 22.11C161.948 22.286 161.948 22.374 161.934 22.374C161.919 22.374 161.875 22.2567 161.802 22.022C161.728 21.7727 161.648 21.5013 161.56 21.208C161.486 20.9 161.413 20.6213 161.34 20.372C161.281 20.108 161.252 19.9613 161.252 19.932C161.252 19.9173 161.266 19.932 161.296 19.976C161.34 20.0053 161.384 20.0493 161.428 20.108C161.472 20.1667 161.508 20.2253 161.538 20.284C161.582 20.328 161.611 20.35 161.626 20.35ZM153.178 19.03L153.2 19.074C153.2 19.0887 153.192 19.1107 153.178 19.14C153.178 19.1547 153.178 19.162 153.178 19.162C153.148 19.206 153.097 19.2867 153.024 19.404C152.95 19.5213 152.899 19.5947 152.87 19.624H152.804H152.716C152.76 19.5507 152.826 19.448 152.914 19.316C153.002 19.184 153.09 19.0887 153.178 19.03ZM154.058 18.26C154.175 18.26 154.285 18.2747 154.388 18.304C154.49 18.3333 154.542 18.436 154.542 18.612C154.527 18.612 154.498 18.612 154.454 18.612C154.41 18.5973 154.38 18.5827 154.366 18.568C154.336 18.5533 154.285 18.5313 154.212 18.502C154.138 18.458 154.087 18.436 154.058 18.436C154.043 18.436 153.97 18.458 153.838 18.502C153.72 18.546 153.647 18.568 153.618 18.568H153.552H153.464C153.522 18.4067 153.603 18.3187 153.706 18.304C153.808 18.2747 153.926 18.26 154.058 18.26ZM151.748 29.854C151.718 29.81 151.667 29.744 151.594 29.656C151.535 29.568 151.491 29.5093 151.462 29.48C151.96 29.788 152.386 30.1767 152.738 30.646L152.892 30.822C152.642 30.7487 152.422 30.6167 152.232 30.426C152.056 30.2207 151.894 30.03 151.748 29.854ZM175.865 31.262L175.535 29.744V30.162C175.535 30.4553 175.521 30.7927 175.491 31.174C175.462 31.5553 175.418 31.8267 175.359 31.988L175.205 31.834L174.127 29.326L173.973 29.04C173.929 28.952 173.827 28.8053 173.665 28.6C173.519 28.3947 173.35 28.182 173.159 27.962C172.983 27.742 172.815 27.5367 172.653 27.346C172.492 27.1553 172.382 27.0233 172.323 26.95L172.169 26.796L172.103 26.774C172.089 26.774 172.074 26.7813 172.059 26.796C172.045 26.796 172.03 26.796 172.015 26.796C171.839 26.9573 171.641 27.236 171.421 27.632C171.216 28.028 171.003 28.4313 170.783 28.842C170.563 29.238 170.351 29.59 170.145 29.898C169.94 30.206 169.757 30.36 169.595 30.36L169.441 30.514C169.251 30.9833 169.082 31.3207 168.935 31.526C168.803 31.7313 168.679 31.8927 168.561 32.01C168.444 32.1127 168.334 32.208 168.231 32.296C168.129 32.3693 168.019 32.5087 167.901 32.714C167.74 32.6113 167.623 32.45 167.549 32.23C167.476 31.9953 167.432 31.7533 167.417 31.504C167.403 31.24 167.403 30.9907 167.417 30.756C167.432 30.5067 167.447 30.316 167.461 30.184C167.417 30.272 167.359 30.4333 167.285 30.668C167.227 30.888 167.153 31.1227 167.065 31.372C166.977 31.6067 166.867 31.8193 166.735 32.01C166.618 32.186 166.486 32.274 166.339 32.274C166.295 32.274 166.251 32.2373 166.207 32.164C166.163 32.0907 166.127 32.01 166.097 31.922C166.068 31.834 166.039 31.7533 166.009 31.68C165.995 31.592 165.987 31.5407 165.987 31.526L163.303 16.368L163.391 15.928C163.949 15.9133 164.389 15.9133 164.711 15.928C165.049 15.9427 165.305 15.9647 165.481 15.994C165.672 16.0087 165.819 16.0307 165.921 16.06C166.039 16.0747 166.156 16.082 166.273 16.082C166.347 16.082 166.398 16.126 166.427 16.214C166.471 16.2873 166.508 16.368 166.537 16.456C166.581 16.544 166.633 16.632 166.691 16.72C166.765 16.7933 166.875 16.83 167.021 16.83C167.124 16.83 167.19 16.7933 167.219 16.72C167.249 16.632 167.271 16.544 167.285 16.456C167.3 16.3533 167.322 16.2653 167.351 16.192C167.381 16.104 167.439 16.06 167.527 16.06C167.557 16.06 167.579 16.0673 167.593 16.082C167.608 16.082 167.615 16.082 167.615 16.082C167.63 16.082 167.674 16.104 167.747 16.148C167.821 16.1773 167.872 16.2067 167.901 16.236C167.931 17.336 167.997 18.37 168.099 19.338C168.202 20.306 168.334 21.3473 168.495 22.462C168.495 22.462 168.495 22.528 168.495 22.66C168.51 22.792 168.525 22.9387 168.539 23.1C168.569 23.2467 168.598 23.386 168.627 23.518C168.657 23.65 168.701 23.7233 168.759 23.738C168.759 23.7233 168.774 23.65 168.803 23.518C168.833 23.386 168.862 23.2467 168.891 23.1C168.935 22.9533 168.972 22.8213 169.001 22.704C169.045 22.572 169.075 22.4913 169.089 22.462C169.148 22.3447 169.177 22.044 169.177 21.56C169.177 21.252 169.17 20.9073 169.155 20.526C169.155 20.13 169.155 19.734 169.155 19.338C169.155 18.942 169.17 18.5607 169.199 18.194C169.243 17.8273 169.309 17.512 169.397 17.248C169.383 17.1893 169.368 17.1453 169.353 17.116C169.353 17.0867 169.353 17.072 169.353 17.072H169.441C169.471 16.984 169.493 16.9107 169.507 16.852C169.537 16.7787 169.566 16.7127 169.595 16.654C169.654 16.61 169.749 16.6027 169.881 16.632C170.013 16.6467 170.16 16.654 170.321 16.654C170.483 16.6393 170.644 16.5953 170.805 16.522C170.967 16.4487 171.106 16.2947 171.223 16.06L171.905 16.126C172.067 16.126 172.155 16.1773 172.169 16.28C172.199 16.368 172.213 16.4487 172.213 16.522V16.72L174.413 23.54C174.472 23.6133 174.523 23.6647 174.567 23.694C174.626 23.7087 174.655 23.7013 174.655 23.672C174.655 23.0267 174.648 22.418 174.633 21.846C174.619 21.2593 174.604 20.6873 174.589 20.13C174.589 19.558 174.582 18.986 174.567 18.414C174.553 17.8273 174.545 17.2187 174.545 16.588C174.545 16.5 174.553 16.3973 174.567 16.28C174.582 16.148 174.655 16.082 174.787 16.082C174.802 16.082 174.817 16.0893 174.831 16.104C174.846 16.104 174.853 16.104 174.853 16.104L175.799 16.412C175.799 16.412 175.807 16.4193 175.821 16.434C175.851 16.4487 175.873 16.456 175.887 16.456C175.917 16.456 175.924 16.434 175.909 16.39C175.895 16.3313 175.902 16.2727 175.931 16.214C175.975 16.1553 176.063 16.104 176.195 16.06C176.327 16.0013 176.547 15.972 176.855 15.972H177.075C177.119 15.972 177.237 15.994 177.427 16.038C177.633 16.082 177.765 16.104 177.823 16.104C177.853 16.104 177.926 16.082 178.043 16.038C178.161 15.994 178.234 15.972 178.263 15.972C178.307 15.972 178.381 15.9793 178.483 15.994C178.601 15.994 178.718 15.994 178.835 15.994C178.967 15.994 179.092 16.0013 179.209 16.016C179.327 16.016 179.407 16.016 179.451 16.016C179.451 16.5733 179.444 17.138 179.429 17.71C179.429 18.282 179.393 18.8393 179.319 19.382C179.305 19.4553 179.275 19.6387 179.231 19.932C179.187 20.2253 179.143 20.5407 179.099 20.878C179.055 21.2007 179.011 21.5087 178.967 21.802C178.923 22.0953 178.894 22.2787 178.879 22.352V22.506L178.461 26.312L177.691 33.044C177.662 32.9707 177.625 32.8533 177.581 32.692C177.537 32.516 177.457 32.428 177.339 32.428C177.325 32.428 177.303 32.4353 177.273 32.45C177.259 32.45 177.251 32.45 177.251 32.45C177.163 32.45 177.09 32.56 177.031 32.78C176.987 32.8973 176.943 33.0293 176.899 33.176C176.855 33.3373 176.819 33.44 176.789 33.484C176.716 33.4547 176.643 33.3887 176.569 33.286C176.511 33.198 176.445 33.1027 176.371 33C176.313 32.8827 176.261 32.7727 176.217 32.67C176.173 32.5673 176.144 32.494 176.129 32.45L175.865 31.262ZM172.235 24.662V24.948C172.235 24.948 172.265 25.014 172.323 25.146C172.382 25.278 172.448 25.432 172.521 25.608C172.609 25.784 172.69 25.9673 172.763 26.158C172.851 26.334 172.925 26.4807 172.983 26.598C173.057 26.7153 173.145 26.8473 173.247 26.994C173.35 27.126 173.46 27.236 173.577 27.324V27.038C173.577 27.038 173.548 26.9793 173.489 26.862C173.431 26.7447 173.357 26.6053 173.269 26.444C173.196 26.2827 173.115 26.1213 173.027 25.96C172.954 25.7987 172.888 25.6593 172.829 25.542C172.8 25.4833 172.727 25.366 172.609 25.19C172.507 24.9993 172.433 24.8747 172.389 24.816C172.389 24.7133 172.338 24.662 172.235 24.662ZM172.741 20.592C172.536 20.7533 172.433 20.9513 172.433 21.186C172.433 21.3327 172.47 21.4793 172.543 21.626C172.631 21.758 172.756 21.824 172.917 21.824C172.917 21.6187 172.903 21.4133 172.873 21.208C172.859 21.0027 172.815 20.7973 172.741 20.592ZM176.041 19.844C175.968 20.1373 175.924 20.3867 175.909 20.592C175.895 20.7973 175.887 21.0467 175.887 21.34V21.934L176.217 22.308L176.041 19.844ZM169.111 27.06C169.111 27.0307 169.104 26.9793 169.089 26.906C169.089 26.8327 169.089 26.7887 169.089 26.774C168.972 26.994 168.891 27.1847 168.847 27.346C168.803 27.4927 168.781 27.6687 168.781 27.874C168.781 27.9033 168.781 27.9473 168.781 28.006C168.796 28.05 168.803 28.0867 168.803 28.116C169.009 27.7347 169.111 27.3827 169.111 27.06ZM165.679 19.052L166.031 19.426L165.679 17.864V19.052ZM172.499 22.198C172.426 22.198 172.389 22.2493 172.389 22.352C172.389 22.4547 172.426 22.506 172.499 22.506C172.573 22.506 172.609 22.4547 172.609 22.352C172.609 22.2493 172.573 22.198 172.499 22.198ZM169.243 26.466C169.199 26.4953 169.177 26.5247 169.177 26.554C169.177 26.5833 169.199 26.6127 169.243 26.642C169.287 26.6567 169.309 26.6273 169.309 26.554C169.309 26.4807 169.287 26.4513 169.243 26.466Z" fill="white"/>
<defs>
<linearGradient id="paint0_linear_103_320" x1="28.9375" y1="25" x2="4.1875" y2="25" gradientUnits="userSpaceOnUse">
<stop stop-color="#F1A738"/>
<stop offset="1" stop-color="#F1A738" stop-opacity="0"/>
</linearGradient>
</defs>
</svg>
