<svg width="313" height="50" viewBox="0 0 313 50" fill="none" xmlns="http://www.w3.org/2000/svg">
<path d="M28.0625 25L51.2426 49H131.532H219.677H259.822L284.062 25L271.942 13L259.822 1H219.677H131.532H51.2426L28.0625 25Z" fill="black" fill-opacity="0.36" stroke="#F1A738" stroke-width="2"/>
<path d="M79.672 31.262L79.342 29.744V30.162C79.342 30.4553 79.3273 30.7927 79.298 31.174C79.2687 31.5553 79.2247 31.8267 79.166 31.988L79.012 31.834L77.934 29.326L77.78 29.04C77.736 28.952 77.6333 28.8053 77.472 28.6C77.3253 28.3947 77.1567 28.182 76.966 27.962C76.79 27.742 76.6213 27.5367 76.46 27.346C76.2987 27.1553 76.1887 27.0233 76.13 26.95L75.976 26.796L75.91 26.774C75.8953 26.774 75.8807 26.7813 75.866 26.796C75.8513 26.796 75.8367 26.796 75.822 26.796C75.646 26.9573 75.448 27.236 75.228 27.632C75.0227 28.028 74.81 28.4313 74.59 28.842C74.37 29.238 74.1573 29.59 73.952 29.898C73.7467 30.206 73.5633 30.36 73.402 30.36L73.248 30.514C73.0573 30.9833 72.8887 31.3207 72.742 31.526C72.61 31.7313 72.4853 31.8927 72.368 32.01C72.2507 32.1127 72.1407 32.208 72.038 32.296C71.9353 32.3693 71.8253 32.5087 71.708 32.714C71.5467 32.6113 71.4293 32.45 71.356 32.23C71.2827 31.9953 71.2387 31.7533 71.224 31.504C71.2093 31.24 71.2093 30.9907 71.224 30.756C71.2387 30.5067 71.2533 30.316 71.268 30.184C71.224 30.272 71.1653 30.4333 71.092 30.668C71.0333 30.888 70.96 31.1227 70.872 31.372C70.784 31.6067 70.674 31.8193 70.542 32.01C70.4247 32.186 70.2927 32.274 70.146 32.274C70.102 32.274 70.058 32.2373 70.014 32.164C69.97 32.0907 69.9333 32.01 69.904 31.922C69.8747 31.834 69.8453 31.7533 69.816 31.68C69.8013 31.592 69.794 31.5407 69.794 31.526L67.11 16.368L67.198 15.928C67.7553 15.9133 68.1953 15.9133 68.518 15.928C68.8553 15.9427 69.112 15.9647 69.288 15.994C69.4787 16.0087 69.6253 16.0307 69.728 16.06C69.8453 16.0747 69.9627 16.082 70.08 16.082C70.1533 16.082 70.2047 16.126 70.234 16.214C70.278 16.2873 70.3147 16.368 70.344 16.456C70.388 16.544 70.4393 16.632 70.498 16.72C70.5713 16.7933 70.6813 16.83 70.828 16.83C70.9307 16.83 70.9967 16.7933 71.026 16.72C71.0553 16.632 71.0773 16.544 71.092 16.456C71.1067 16.3533 71.1287 16.2653 71.158 16.192C71.1873 16.104 71.246 16.06 71.334 16.06C71.3633 16.06 71.3853 16.0673 71.4 16.082C71.4147 16.082 71.422 16.082 71.422 16.082C71.4367 16.082 71.4807 16.104 71.554 16.148C71.6273 16.1773 71.6787 16.2067 71.708 16.236C71.7373 17.336 71.8033 18.37 71.906 19.338C72.0087 20.306 72.1407 21.3473 72.302 22.462C72.302 22.462 72.302 22.528 72.302 22.66C72.3167 22.792 72.3313 22.9387 72.346 23.1C72.3753 23.2467 72.4047 23.386 72.434 23.518C72.4633 23.65 72.5073 23.7233 72.566 23.738C72.566 23.7233 72.5807 23.65 72.61 23.518C72.6393 23.386 72.6687 23.2467 72.698 23.1C72.742 22.9533 72.7787 22.8213 72.808 22.704C72.852 22.572 72.8813 22.4913 72.896 22.462C72.9547 22.3447 72.984 22.044 72.984 21.56C72.984 21.252 72.9767 20.9073 72.962 20.526C72.962 20.13 72.962 19.734 72.962 19.338C72.962 18.942 72.9767 18.5607 73.006 18.194C73.05 17.8273 73.116 17.512 73.204 17.248C73.1893 17.1893 73.1747 17.1453 73.16 17.116C73.16 17.0867 73.16 17.072 73.16 17.072H73.248C73.2773 16.984 73.2993 16.9107 73.314 16.852C73.3433 16.7787 73.3727 16.7127 73.402 16.654C73.4607 16.61 73.556 16.6027 73.688 16.632C73.82 16.6467 73.9667 16.654 74.128 16.654C74.2893 16.6393 74.4507 16.5953 74.612 16.522C74.7733 16.4487 74.9127 16.2947 75.03 16.06L75.712 16.126C75.8733 16.126 75.9613 16.1773 75.976 16.28C76.0053 16.368 76.02 16.4487 76.02 16.522V16.72L78.22 23.54C78.2787 23.6133 78.33 23.6647 78.374 23.694C78.4327 23.7087 78.462 23.7013 78.462 23.672C78.462 23.0267 78.4547 22.418 78.44 21.846C78.4253 21.2593 78.4107 20.6873 78.396 20.13C78.396 19.558 78.3887 18.986 78.374 18.414C78.3593 17.8273 78.352 17.2187 78.352 16.588C78.352 16.5 78.3593 16.3973 78.374 16.28C78.3887 16.148 78.462 16.082 78.594 16.082C78.6087 16.082 78.6233 16.0893 78.638 16.104C78.6527 16.104 78.66 16.104 78.66 16.104L79.606 16.412C79.606 16.412 79.6133 16.4193 79.628 16.434C79.6573 16.4487 79.6793 16.456 79.694 16.456C79.7233 16.456 79.7307 16.434 79.716 16.39C79.7013 16.3313 79.7087 16.2727 79.738 16.214C79.782 16.1553 79.87 16.104 80.002 16.06C80.134 16.0013 80.354 15.972 80.662 15.972H80.882C80.926 15.972 81.0433 15.994 81.234 16.038C81.4393 16.082 81.5713 16.104 81.63 16.104C81.6593 16.104 81.7327 16.082 81.85 16.038C81.9673 15.994 82.0407 15.972 82.07 15.972C82.114 15.972 82.1873 15.9793 82.29 15.994C82.4073 15.994 82.5247 15.994 82.642 15.994C82.774 15.994 82.8987 16.0013 83.016 16.016C83.1333 16.016 83.214 16.016 83.258 16.016C83.258 16.5733 83.2507 17.138 83.236 17.71C83.236 18.282 83.1993 18.8393 83.126 19.382C83.1113 19.4553 83.082 19.6387 83.038 19.932C82.994 20.2253 82.95 20.5407 82.906 20.878C82.862 21.2007 82.818 21.5087 82.774 21.802C82.73 22.0953 82.7007 22.2787 82.686 22.352V22.506L82.268 26.312L81.498 33.044C81.4687 32.9707 81.432 32.8533 81.388 32.692C81.344 32.516 81.2633 32.428 81.146 32.428C81.1313 32.428 81.1093 32.4353 81.08 32.45C81.0653 32.45 81.058 32.45 81.058 32.45C80.97 32.45 80.8967 32.56 80.838 32.78C80.794 32.8973 80.75 33.0293 80.706 33.176C80.662 33.3373 80.6253 33.44 80.596 33.484C80.5227 33.4547 80.4493 33.3887 80.376 33.286C80.3173 33.198 80.2513 33.1027 80.178 33C80.1193 32.8827 80.068 32.7727 80.024 32.67C79.98 32.5673 79.9507 32.494 79.936 32.45L79.672 31.262ZM76.042 24.662V24.948C76.042 24.948 76.0713 25.014 76.13 25.146C76.1887 25.278 76.2547 25.432 76.328 25.608C76.416 25.784 76.4967 25.9673 76.57 26.158C76.658 26.334 76.7313 26.4807 76.79 26.598C76.8633 26.7153 76.9513 26.8473 77.054 26.994C77.1567 27.126 77.2667 27.236 77.384 27.324V27.038C77.384 27.038 77.3547 26.9793 77.296 26.862C77.2373 26.7447 77.164 26.6053 77.076 26.444C77.0027 26.2827 76.922 26.1213 76.834 25.96C76.7607 25.7987 76.6947 25.6593 76.636 25.542C76.6067 25.4833 76.5333 25.366 76.416 25.19C76.3133 24.9993 76.24 24.8747 76.196 24.816C76.196 24.7133 76.1447 24.662 76.042 24.662ZM76.548 20.592C76.3427 20.7533 76.24 20.9513 76.24 21.186C76.24 21.3327 76.2767 21.4793 76.35 21.626C76.438 21.758 76.5627 21.824 76.724 21.824C76.724 21.6187 76.7093 21.4133 76.68 21.208C76.6653 21.0027 76.6213 20.7973 76.548 20.592ZM79.848 19.844C79.7747 20.1373 79.7307 20.3867 79.716 20.592C79.7013 20.7973 79.694 21.0467 79.694 21.34V21.934L80.024 22.308L79.848 19.844ZM72.918 27.06C72.918 27.0307 72.9107 26.9793 72.896 26.906C72.896 26.8327 72.896 26.7887 72.896 26.774C72.7787 26.994 72.698 27.1847 72.654 27.346C72.61 27.4927 72.588 27.6687 72.588 27.874C72.588 27.9033 72.588 27.9473 72.588 28.006C72.6027 28.05 72.61 28.0867 72.61 28.116C72.8153 27.7347 72.918 27.3827 72.918 27.06ZM69.486 19.052L69.838 19.426L69.486 17.864V19.052ZM76.306 22.198C76.2327 22.198 76.196 22.2493 76.196 22.352C76.196 22.4547 76.2327 22.506 76.306 22.506C76.3793 22.506 76.416 22.4547 76.416 22.352C76.416 22.2493 76.3793 22.198 76.306 22.198ZM73.05 26.466C73.006 26.4953 72.984 26.5247 72.984 26.554C72.984 26.5833 73.006 26.6127 73.05 26.642C73.094 26.6567 73.116 26.6273 73.116 26.554C73.116 26.4807 73.094 26.4513 73.05 26.466ZM83.2685 31.834C83.2685 31.922 83.2832 32.0467 83.3125 32.208C83.3418 32.3693 83.3712 32.538 83.4005 32.714C83.4445 32.89 83.4812 33.0513 83.5105 33.198C83.5398 33.3593 83.5618 33.484 83.5765 33.572C83.5912 33.6013 83.6132 33.6747 83.6425 33.792C83.6865 33.9093 83.7158 33.9827 83.7305 34.012C83.7598 33.9827 83.7892 33.9093 83.8185 33.792C83.8625 33.6747 83.8845 33.6013 83.8845 33.572C83.8992 33.528 83.9212 33.4033 83.9505 33.198C83.9798 32.9927 84.0018 32.7727 84.0165 32.538C84.0458 32.3033 84.0752 32.0833 84.1045 31.878C84.1338 31.6727 84.1558 31.548 84.1705 31.504C84.1852 31.4013 84.2145 31.262 84.2585 31.086C84.3172 30.91 84.3685 30.7633 84.4125 30.646C84.4565 30.5287 84.4785 30.4627 84.4785 30.448H84.5885C84.5885 30.5067 84.5958 30.6093 84.6105 30.756C84.6398 30.9027 84.6472 30.998 84.6325 31.042C84.6325 31.1007 84.6032 31.2327 84.5445 31.438C84.5005 31.6287 84.4785 31.746 84.4785 31.79C84.4785 31.8193 84.4932 31.8853 84.5225 31.988C84.5665 32.0907 84.6032 32.1713 84.6325 32.23L85.2265 33.418C85.4465 33.2713 85.6005 33.0073 85.6885 32.626C85.7765 32.23 85.8498 31.8267 85.9085 31.416C85.9818 31.0053 86.0698 30.646 86.1725 30.338C86.2752 30.0153 86.4512 29.854 86.7005 29.854H89.8245L90.2645 31.944C90.3672 31.9733 90.5065 32.0613 90.6825 32.208C90.8732 32.3547 91.0638 32.5087 91.2545 32.67C91.4452 32.8167 91.6138 32.9413 91.7605 33.044C91.9218 33.1467 92.0172 33.176 92.0465 33.132L92.3545 32.538V30.162C92.5305 30.4553 92.6405 30.7193 92.6845 30.954C92.7285 31.174 92.7798 31.3793 92.8385 31.57C92.8972 31.746 92.9925 31.9293 93.1245 32.12C93.2565 32.296 93.4912 32.4867 93.8285 32.692C93.8725 32.7213 93.9678 32.7947 94.1145 32.912C94.2758 33.0147 94.3785 33.088 94.4225 33.132C94.4225 33.1173 94.4225 33.0953 94.4225 33.066C94.4372 33.0367 94.4445 33.0073 94.4445 32.978C94.4445 32.846 94.4078 32.7507 94.3345 32.692C94.2758 32.6187 94.2098 32.5527 94.1365 32.494C94.0632 32.4353 93.9898 32.384 93.9165 32.34C93.8578 32.2813 93.8285 32.2007 93.8285 32.098C93.8285 32.0247 93.8432 31.9513 93.8725 31.878C93.9018 31.8047 93.9605 31.768 94.0485 31.768C94.0632 31.768 94.0778 31.7753 94.0925 31.79C94.1218 31.79 94.1365 31.79 94.1365 31.79C94.1805 31.8193 94.2758 31.8707 94.4225 31.944C94.5692 32.0173 94.6718 32.0687 94.7305 32.098C94.8332 32.0833 94.8845 32.0173 94.8845 31.9V31.614C94.8845 31.5847 94.8772 31.5333 94.8625 31.46C94.8625 31.3867 94.8625 31.35 94.8625 31.35L93.8285 27.478V26.004L92.2005 16.94C92.1858 16.8227 92.1492 16.698 92.0905 16.566C92.0318 16.4193 91.9585 16.2873 91.8705 16.17C91.7825 16.0527 91.6725 15.9573 91.5405 15.884C91.4232 15.796 91.2985 15.752 91.1665 15.752C91.0052 15.752 90.8512 15.8033 90.7045 15.906C90.5725 16.0087 90.4258 16.06 90.2645 16.06C90.1912 16.06 90.1325 16.0527 90.0885 16.038C90.0445 16.0233 90.0005 16.0087 89.9565 15.994C89.9272 15.9647 89.8832 15.9427 89.8245 15.928C89.7805 15.8987 89.7072 15.884 89.6045 15.884C89.5018 15.884 89.3772 15.8913 89.2305 15.906C89.0985 15.9207 88.9518 15.9353 88.7905 15.95C88.6438 15.9647 88.5045 15.9867 88.3725 16.016C88.2405 16.0307 88.1305 16.0453 88.0425 16.06C87.8958 16.0893 87.7492 16.1627 87.6025 16.28C87.4558 16.3827 87.3165 16.5 87.1845 16.632C87.0525 16.7493 86.9352 16.8593 86.8325 16.962C86.7445 17.05 86.6785 17.094 86.6345 17.094H86.5465C86.5465 17.05 86.5392 16.9693 86.5245 16.852C86.5245 16.7347 86.5098 16.6173 86.4805 16.5C86.4512 16.368 86.4072 16.258 86.3485 16.17C86.2898 16.0673 86.2092 16.016 86.1065 16.016C86.0918 16.016 86.0625 16.0233 86.0185 16.038C85.9892 16.0527 85.9672 16.06 85.9525 16.06C85.9232 16.1333 85.8718 16.28 85.7985 16.5C85.7252 16.7053 85.6445 16.9253 85.5565 17.16C85.4832 17.3947 85.4098 17.622 85.3365 17.842C85.2778 18.0473 85.2412 18.194 85.2265 18.282C85.1825 18.4873 85.1092 18.7953 85.0065 19.206C84.9038 19.6167 84.7865 20.0787 84.6545 20.592C84.5372 21.1053 84.4052 21.648 84.2585 22.22C84.1118 22.792 83.9725 23.3347 83.8405 23.848C83.7232 24.3613 83.6132 24.8233 83.5105 25.234C83.4078 25.6447 83.3345 25.9527 83.2905 26.158C83.2758 26.598 83.2172 27.0307 83.1145 27.456C83.0265 27.8813 82.9238 28.3067 82.8065 28.732C82.7038 29.1573 82.6085 29.59 82.5205 30.03C82.4325 30.4553 82.3885 30.8953 82.3885 31.35V31.79L82.9605 31.526C82.9605 31.526 82.9678 31.526 82.9825 31.526C83.0118 31.5113 83.0338 31.504 83.0485 31.504L83.1145 31.526C83.1438 31.5553 83.1732 31.6067 83.2025 31.68C83.2318 31.7533 83.2538 31.8047 83.2685 31.834ZM86.8765 26.488C87.0232 25.608 87.2285 24.7133 87.4925 23.804C87.7565 22.8947 88.0352 22.044 88.3285 21.252L88.4825 21.406L89.5165 26.158L89.5385 26.488C89.1132 26.5467 88.7465 26.5907 88.4385 26.62C88.1452 26.6347 87.8078 26.642 87.4265 26.642C87.3825 26.642 87.2872 26.6493 87.1405 26.664C86.9938 26.664 86.9058 26.6053 86.8765 26.488ZM91.4525 17.842C91.4672 17.842 91.4818 17.842 91.4965 17.842C91.5112 17.8273 91.5258 17.82 91.5405 17.82C91.6432 17.82 91.7312 17.974 91.8045 18.282C91.8925 18.5753 91.9658 18.9127 92.0245 19.294C92.0832 19.6607 92.1272 20.0127 92.1565 20.35C92.1858 20.6873 92.2005 20.8853 92.2005 20.944C92.2005 20.9733 92.1785 21.0027 92.1345 21.032C92.1052 21.0467 92.0758 21.0687 92.0465 21.098C92.0465 21.098 92.0318 21.1053 92.0025 21.12C91.9732 21.1347 91.9585 21.1273 91.9585 21.098C91.9438 20.966 91.9145 20.7607 91.8705 20.482C91.8412 20.1887 91.7972 19.8733 91.7385 19.536C91.6945 19.1987 91.6432 18.876 91.5845 18.568C91.5405 18.26 91.4965 18.018 91.4525 17.842ZM83.9945 26.972V27.148C83.9945 27.2213 83.9945 27.3093 83.9945 27.412C84.0092 27.5147 84.0165 27.61 84.0165 27.698V27.852V28.094C84.0165 28.1967 84.0092 28.292 83.9945 28.38C83.9945 28.468 83.9945 28.5487 83.9945 28.622V28.754C83.9945 28.8713 83.9725 29.0253 83.9285 29.216C83.8992 29.4067 83.8698 29.502 83.8405 29.502H83.7085V29.348L83.8405 27.126L83.9945 26.972ZM97.5193 33.264C97.4607 33.2493 97.4313 33.2713 97.4313 33.33C97.4313 33.4033 97.4607 33.4253 97.5193 33.396C97.578 33.3667 97.6073 33.3373 97.6073 33.308C97.6073 33.2787 97.578 33.264 97.5193 33.264ZM97.6513 32.494V32.802C97.666 32.8313 97.6953 32.8827 97.7393 32.956C97.798 33.0147 97.8567 33.0733 97.9153 33.132C97.9887 33.2053 98.0547 33.264 98.1133 33.308C98.172 33.3667 98.216 33.396 98.2453 33.396C98.2747 33.352 98.326 33.2713 98.3993 33.154C98.4727 33.0513 98.524 32.9853 98.5533 32.956L98.5973 32.934C98.6267 32.934 98.6487 32.9413 98.6633 32.956C98.6927 32.956 98.7073 32.956 98.7073 32.956C98.7367 32.956 98.788 32.9707 98.8613 33C98.9347 33.044 98.9787 33.0807 98.9933 33.11L99.3013 32.208C99.3013 32.208 99.3233 32.032 99.3673 31.68C99.4113 31.3133 99.4627 30.888 99.5213 30.404C99.5947 29.9053 99.6607 29.3993 99.7193 28.886C99.7927 28.3727 99.8513 27.962 99.8953 27.654C99.9393 27.2873 99.9687 26.9353 99.9833 26.598C99.998 26.246 100.013 25.9013 100.027 25.564C100.057 25.2267 100.093 24.8893 100.137 24.552C100.181 24.2147 100.247 23.8627 100.335 23.496C100.379 23.2613 100.438 22.9607 100.511 22.594C100.599 22.2273 100.68 21.868 100.753 21.516C100.841 21.164 100.915 20.8633 100.973 20.614C101.032 20.3647 101.069 20.24 101.083 20.24L101.215 20.086H102.997V19.052C102.983 19.052 102.939 19.0373 102.865 19.008C102.807 18.9787 102.733 18.942 102.645 18.898C102.572 18.854 102.499 18.81 102.425 18.766C102.352 18.7073 102.301 18.656 102.271 18.612L102.997 17.71V17.424H101.369V17.27C101.413 17.2553 101.487 17.2407 101.589 17.226C101.707 17.1967 101.831 17.1673 101.963 17.138C102.095 17.1087 102.213 17.0793 102.315 17.05C102.433 17.0207 102.513 16.9913 102.557 16.962C102.675 16.918 102.777 16.8667 102.865 16.808C102.968 16.7493 103.019 16.6467 103.019 16.5C103.019 16.3387 102.931 16.192 102.755 16.06C102.594 15.9133 102.433 15.818 102.271 15.774H101.963C101.831 15.774 101.685 15.774 101.523 15.774C101.377 15.7593 101.23 15.752 101.083 15.752H100.775C100.262 15.752 99.756 15.7813 99.2573 15.84C98.7733 15.8987 98.2747 15.928 97.7613 15.928C97.3067 15.928 96.8593 15.8987 96.4193 15.84C95.994 15.7813 95.554 15.752 95.0993 15.752C94.982 15.752 94.8353 15.7593 94.6593 15.774C94.4833 15.774 94.3073 15.796 94.1313 15.84C93.9553 15.884 93.8013 15.9573 93.6693 16.06C93.552 16.148 93.4933 16.28 93.4933 16.456V16.522C93.508 16.5513 93.53 16.5807 93.5593 16.61C93.6033 16.6393 93.6327 16.6613 93.6473 16.676C93.6767 16.6907 93.7353 16.7127 93.8233 16.742C93.9113 16.7713 94.0067 16.8007 94.1093 16.83C94.212 16.8593 94.3 16.8887 94.3733 16.918C94.4613 16.9327 94.52 16.9473 94.5493 16.962C94.5053 17.05 94.432 17.1087 94.3293 17.138C94.2267 17.1673 94.124 17.1893 94.0213 17.204C93.9333 17.2187 93.8453 17.248 93.7573 17.292C93.684 17.3213 93.6473 17.38 93.6473 17.468C93.6473 17.5853 93.6987 17.6807 93.8013 17.754C93.9187 17.8127 93.9773 17.9007 93.9773 18.018C93.9773 18.1353 93.9187 18.2233 93.8013 18.282C93.6987 18.326 93.6473 18.4067 93.6473 18.524C93.6473 18.6853 93.728 18.7733 93.8893 18.788C94.0507 18.8027 94.234 18.8027 94.4393 18.788C94.6593 18.7587 94.8647 18.7513 95.0553 18.766C95.246 18.7807 95.3707 18.876 95.4293 19.052C95.3413 19.0373 95.1947 19.0373 94.9893 19.052C94.7987 19.052 94.6007 19.0813 94.3953 19.14C94.2047 19.1987 94.0287 19.2867 93.8673 19.404C93.7207 19.5067 93.6473 19.6533 93.6473 19.844C93.6473 19.9467 93.7573 20.0347 93.9773 20.108C94.1973 20.1667 94.4393 20.218 94.7033 20.262C94.982 20.2913 95.246 20.3207 95.4953 20.35C95.7593 20.3647 95.9353 20.3793 96.0233 20.394C96.038 20.526 96.06 20.768 96.0893 21.12C96.1333 21.472 96.17 21.846 96.1993 22.242C96.2287 22.638 96.258 23.012 96.2873 23.364C96.3167 23.716 96.3313 23.958 96.3313 24.09C96.3313 24.2953 96.3313 24.6107 96.3313 25.036C96.346 25.4467 96.3533 25.916 96.3533 26.444C96.3533 26.708 96.3533 27.0013 96.3533 27.324C96.368 27.6467 96.3753 27.9767 96.3753 28.314C96.3753 28.6513 96.3753 28.9813 96.3753 29.304C96.39 29.6267 96.3973 29.92 96.3973 30.184C96.3973 30.712 96.3973 31.1887 96.3973 31.614C96.412 32.0247 96.4193 32.3327 96.4193 32.538C96.434 32.538 96.4413 32.538 96.4413 32.538C96.456 32.5233 96.4633 32.516 96.4633 32.516L96.7713 32.362C96.786 32.3473 96.808 32.3473 96.8373 32.362C96.8813 32.3767 96.9107 32.384 96.9253 32.384V32.802C97.072 32.714 97.1747 32.6113 97.2333 32.494C97.292 32.362 97.336 32.2227 97.3653 32.076C97.38 32.0027 97.402 31.8853 97.4313 31.724C97.4607 31.548 97.49 31.3647 97.5193 31.174C97.5487 30.9833 97.5707 30.8073 97.5853 30.646C97.6147 30.4847 97.6367 30.3673 97.6513 30.294H97.7833C97.7833 30.6753 97.7613 31.042 97.7173 31.394C97.6733 31.746 97.6513 32.1127 97.6513 32.494ZM98.9933 19.8H99.8953V19.888C99.6753 19.888 99.514 19.9687 99.4113 20.13C99.3087 20.2767 99.2353 20.46 99.1913 20.68C99.1473 20.8853 99.1107 21.1053 99.0813 21.34C99.0667 21.56 99.0373 21.736 98.9933 21.868V19.8ZM112.154 16.104H113.364C113.378 16.104 113.393 16.104 113.408 16.104C113.422 16.0893 113.437 16.082 113.452 16.082C113.54 16.082 113.613 16.1407 113.672 16.258C113.745 16.3753 113.804 16.5073 113.848 16.654C113.892 16.786 113.921 16.918 113.936 17.05C113.95 17.182 113.958 17.2627 113.958 17.292C113.958 17.292 113.892 17.336 113.76 17.424C113.642 17.512 113.503 17.6073 113.342 17.71C113.18 17.798 113.034 17.886 112.902 17.974C112.784 18.062 112.726 18.106 112.726 18.106L114.156 18.678C114.17 18.6633 114.112 18.6853 113.98 18.744C113.848 18.788 113.701 18.8467 113.54 18.92C113.378 18.9787 113.232 19.0373 113.1 19.096C112.968 19.14 112.909 19.1547 112.924 19.14L114.508 19.756C114.537 20.0933 114.515 20.328 114.442 20.46C114.368 20.5773 114.251 20.636 114.09 20.636C113.87 20.636 113.569 20.57 113.188 20.438C112.806 20.306 112.403 20.24 111.978 20.24C111.684 20.24 111.391 20.3207 111.098 20.482C110.599 20.482 110.181 20.6067 109.844 20.856C109.506 21.1053 109.235 21.428 109.03 21.824C108.824 22.2053 108.678 22.6307 108.59 23.1C108.502 23.5693 108.458 24.0167 108.458 24.442C108.458 25.234 108.524 25.9013 108.656 26.444C108.788 26.9867 109.015 27.4193 109.338 27.742C109.66 28.0647 110.086 28.2847 110.614 28.402C111.142 28.5193 111.794 28.5413 112.572 28.468C112.572 28.4827 112.572 28.4973 112.572 28.512C112.586 28.5267 112.594 28.5413 112.594 28.556C112.594 28.6733 112.542 28.7613 112.44 28.82C112.337 28.864 112.22 28.9153 112.088 28.974C111.97 29.018 111.86 29.0767 111.758 29.15C111.655 29.2233 111.604 29.3407 111.604 29.502C111.78 29.502 111.97 29.4727 112.176 29.414C112.396 29.3553 112.608 29.2967 112.814 29.238C113.034 29.1793 113.246 29.1353 113.452 29.106C113.657 29.0767 113.84 29.0987 114.002 29.172C113.855 29.2747 113.701 29.3627 113.54 29.436C113.378 29.5093 113.224 29.59 113.078 29.678C112.946 29.7513 112.836 29.832 112.748 29.92C112.66 30.008 112.616 30.118 112.616 30.25C112.63 30.25 112.674 30.2427 112.748 30.228C112.836 30.1987 112.924 30.1767 113.012 30.162C113.1 30.1327 113.18 30.1107 113.254 30.096C113.342 30.0667 113.393 30.052 113.408 30.052L114.156 29.92H114.244H114.31C114.104 30.184 113.848 30.4187 113.54 30.624C113.232 30.8147 112.909 30.9687 112.572 31.086C112.234 31.2033 111.882 31.2913 111.516 31.35C111.164 31.394 110.834 31.4087 110.526 31.394C110.76 31.5553 111.039 31.6287 111.362 31.614C111.699 31.5847 112.036 31.548 112.374 31.504C112.726 31.46 113.056 31.438 113.364 31.438C113.686 31.4233 113.95 31.5113 114.156 31.702C114.156 31.7167 114.156 31.7313 114.156 31.746C114.17 31.7607 114.178 31.7753 114.178 31.79C114.178 31.834 114.097 31.9147 113.936 32.032C113.774 32.1493 113.591 32.274 113.386 32.406C113.195 32.5233 113.004 32.6333 112.814 32.736C112.638 32.824 112.528 32.868 112.484 32.868C112.454 32.8827 112.403 32.8607 112.33 32.802C112.256 32.7433 112.205 32.714 112.176 32.714H111.912C111.765 32.714 111.633 32.736 111.516 32.78C111.413 32.824 111.303 32.8753 111.186 32.934C111.083 32.978 110.973 33.022 110.856 33.066C110.753 33.11 110.628 33.132 110.482 33.132C109.294 33.132 108.252 32.8827 107.358 32.384C106.478 31.8853 105.744 31.2327 105.158 30.426C104.571 29.6047 104.131 28.6733 103.838 27.632C103.544 26.576 103.398 25.5053 103.398 24.42C103.398 23.8627 103.449 23.276 103.552 22.66C103.669 22.0293 103.83 21.4133 104.036 20.812C104.256 20.2107 104.527 19.6313 104.85 19.074C105.187 18.5167 105.576 18.0327 106.016 17.622C106.456 17.1967 106.954 16.8593 107.512 16.61C108.069 16.3607 108.678 16.236 109.338 16.236C109.572 16.236 109.8 16.214 110.02 16.17C110.254 16.1113 110.482 16.0673 110.702 16.038C110.922 16.0087 111.127 16.0013 111.318 16.016C111.508 16.0307 111.684 16.1113 111.846 16.258C111.875 16.2287 111.926 16.1993 112 16.17C112.073 16.126 112.124 16.104 112.154 16.104ZM108.15 17.292H108.304C108.494 17.292 108.67 17.2627 108.832 17.204C108.993 17.1453 109.162 17.116 109.338 17.116V16.94C109.162 16.94 108.949 16.9547 108.7 16.984C108.465 16.9987 108.282 17.1013 108.15 17.292ZM107.886 23.078V23.364C108.062 23.1 108.23 22.77 108.392 22.374C108.568 21.978 108.656 21.6187 108.656 21.296C108.656 21.2667 108.648 21.2373 108.634 21.208C108.634 21.1787 108.634 21.1567 108.634 21.142C108.37 21.3473 108.179 21.648 108.062 22.044C107.944 22.4253 107.886 22.77 107.886 23.078ZM104.586 27.39V27.236C104.586 27.1627 104.571 27.0087 104.542 26.774C104.527 26.5393 104.505 26.2973 104.476 26.048C104.446 25.784 104.41 25.5347 104.366 25.3C104.322 25.0653 104.278 24.9113 104.234 24.838C104.234 24.8527 104.234 24.948 104.234 25.124C104.248 25.3 104.256 25.498 104.256 25.718C104.27 25.9233 104.278 26.114 104.278 26.29C104.292 26.466 104.3 26.5613 104.3 26.576C104.3 26.7373 104.314 26.8767 104.344 26.994C104.388 27.0967 104.468 27.2287 104.586 27.39ZM116.254 33.22L116.408 33.352C116.408 33.352 116.452 33.3227 116.54 33.264C116.643 33.22 116.753 33.154 116.87 33.066C117.002 32.9927 117.134 32.9193 117.266 32.846C117.398 32.758 117.508 32.6847 117.596 32.626C117.743 32.4793 117.838 32.3253 117.882 32.164C117.897 32.12 117.919 32.032 117.948 31.9C117.978 31.768 118.007 31.636 118.036 31.504C118.066 31.3573 118.095 31.2253 118.124 31.108C118.154 30.976 118.176 30.888 118.19 30.844L118.344 30.69L118.476 30.844C118.476 30.8587 118.484 30.9027 118.498 30.976C118.513 31.0493 118.52 31.1227 118.52 31.196V31.306C118.52 31.6433 118.462 31.9513 118.344 32.23C118.242 32.494 118.19 32.78 118.19 33.088C118.337 33.088 118.491 33.0587 118.652 33C118.814 32.956 118.909 32.8313 118.938 32.626C118.953 32.186 118.96 31.724 118.96 31.24C118.975 30.756 118.997 30.272 119.026 29.788C119.07 29.2893 119.129 28.8053 119.202 28.336C119.276 27.852 119.386 27.3973 119.532 26.972C119.547 26.8693 119.591 26.818 119.664 26.818H122.942L123.096 26.972C123.096 26.972 123.104 27.1187 123.118 27.412C123.148 27.7053 123.177 28.05 123.206 28.446C123.25 28.842 123.287 29.2527 123.316 29.678C123.346 30.0887 123.368 30.426 123.382 30.69C123.382 30.7633 123.382 30.8953 123.382 31.086C123.397 31.2767 123.404 31.4747 123.404 31.68C123.404 31.8853 123.397 32.076 123.382 32.252C123.382 32.428 123.382 32.5527 123.382 32.626C123.441 32.6847 123.492 32.7287 123.536 32.758C123.536 32.758 123.544 32.7653 123.558 32.78C123.573 32.78 123.588 32.78 123.602 32.78C123.617 32.78 123.632 32.78 123.646 32.78C123.676 32.7653 123.69 32.758 123.69 32.758C123.734 32.7287 123.808 32.6553 123.91 32.538C124.028 32.4207 124.101 32.3473 124.13 32.318C124.218 32.318 124.27 32.3693 124.284 32.472C124.299 32.516 124.321 32.6333 124.35 32.824C124.394 33.0147 124.416 33.1467 124.416 33.22H124.724C124.724 33.1907 124.724 33.132 124.724 33.044C124.739 32.956 124.761 32.868 124.79 32.78C124.82 32.692 124.856 32.6187 124.9 32.56C124.959 32.4867 125.025 32.45 125.098 32.45C125.186 32.45 125.26 32.494 125.318 32.582C125.392 32.6553 125.458 32.7433 125.516 32.846C125.575 32.934 125.634 33.0293 125.692 33.132C125.766 33.2347 125.839 33.308 125.912 33.352C125.868 33.0733 125.876 32.8093 125.934 32.56C125.993 32.3107 126.059 32.076 126.132 31.856C126.206 31.6213 126.272 31.3867 126.33 31.152C126.389 30.9027 126.396 30.646 126.352 30.382C126.807 28.05 127.159 25.7547 127.408 23.496C127.672 21.2373 127.914 18.9347 128.134 16.588V16.478V16.434C128.12 16.4047 128.098 16.3533 128.068 16.28C128.039 16.2067 128.01 16.1553 127.98 16.126H127.936C127.658 16.126 127.445 16.1773 127.298 16.28C127.152 16.3827 127.042 16.5147 126.968 16.676C126.895 16.8373 126.851 17.028 126.836 17.248C126.822 17.468 126.807 17.688 126.792 17.908H126.572V15.994H123.976C123.874 16.0527 123.734 16.082 123.558 16.082H123.162C123.001 16.082 122.847 16.126 122.7 16.214C122.568 16.2873 122.502 16.4267 122.502 16.632V16.72C122.532 17.1747 122.561 17.6 122.59 17.996C122.634 18.392 122.671 18.7807 122.7 19.162C122.73 19.5433 122.752 19.9247 122.766 20.306C122.796 20.6727 122.81 21.0613 122.81 21.472C122.81 21.5453 122.803 21.6553 122.788 21.802C122.788 21.9487 122.788 22.0367 122.788 22.066L122.634 22.22L119.972 22.374V16.104C119.943 16.104 119.914 16.1113 119.884 16.126C119.87 16.126 119.848 16.126 119.818 16.126L118.476 16.28H118.322C118.161 16.28 118.029 16.2287 117.926 16.126C117.824 16.0233 117.692 15.972 117.53 15.972C117.384 15.972 117.252 16.0013 117.134 16.06C117.032 16.104 116.914 16.126 116.782 16.126C116.68 16.126 116.592 16.104 116.518 16.06C116.445 16.0013 116.357 15.972 116.254 15.972C116.225 15.972 116.188 15.9793 116.144 15.994C116.115 15.994 116.1 15.994 116.1 15.994C116.056 16.0233 115.954 16.1113 115.792 16.258C115.646 16.4047 115.55 16.5147 115.506 16.588C115.477 16.5587 115.426 16.5293 115.352 16.5C115.294 16.456 115.25 16.434 115.22 16.434H115.154C115.037 16.434 114.964 16.4707 114.934 16.544C114.92 16.6173 114.912 16.6907 114.912 16.764V17.028L115.814 28.468C115.829 28.4973 115.844 28.556 115.858 28.644C115.873 28.7173 115.888 28.8053 115.902 28.908C115.917 28.996 115.932 29.084 115.946 29.172C115.961 29.26 115.968 29.3187 115.968 29.348C115.983 29.4947 116.005 29.7513 116.034 30.118C116.064 30.4847 116.086 30.8733 116.1 31.284C116.13 31.6947 116.159 32.0833 116.188 32.45C116.218 32.8167 116.24 33.0733 116.254 33.22ZM125.758 29.502V29.678C125.758 29.7513 125.758 29.8393 125.758 29.942C125.773 30.0447 125.78 30.14 125.78 30.228V30.382V30.624C125.78 30.7267 125.773 30.822 125.758 30.91C125.758 30.998 125.758 31.0787 125.758 31.152V31.284C125.758 31.4013 125.736 31.5553 125.692 31.746C125.663 31.9367 125.634 32.032 125.604 32.032H125.472V31.878L125.604 29.656L125.758 29.502ZM125.274 28.028C125.289 28.028 125.289 28.0867 125.274 28.204C125.274 28.3067 125.26 28.4313 125.23 28.578C125.216 28.7247 125.194 28.864 125.164 28.996C125.15 29.1133 125.142 29.1793 125.142 29.194C125.142 29.2967 125.098 29.348 125.01 29.348C124.937 29.348 124.9 29.2967 124.9 29.194C124.9 29.1793 124.915 29.1133 124.944 28.996C124.988 28.864 125.032 28.7247 125.076 28.578C125.12 28.4313 125.157 28.3067 125.186 28.204C125.23 28.0867 125.26 28.028 125.274 28.028ZM123.734 24.486L123.382 25.696C123.397 25.696 123.36 25.718 123.272 25.762C123.199 25.806 123.104 25.8573 122.986 25.916C122.884 25.96 122.781 26.004 122.678 26.048C122.59 26.092 122.546 26.1213 122.546 26.136L122.942 25.784C122.972 25.7107 123.023 25.6593 123.096 25.63L123.734 24.486ZM119.818 23.254H121.314C121.3 23.3567 121.234 23.408 121.116 23.408H120.874C120.669 23.408 120.5 23.4007 120.368 23.386C120.236 23.3713 120.053 23.3273 119.818 23.254ZM117.156 21.934C117.156 21.8753 117.149 21.7727 117.134 21.626C117.134 21.4793 117.127 21.3327 117.112 21.186C117.098 21.0247 117.076 20.878 117.046 20.746C117.032 20.5993 117.017 20.4967 117.002 20.438C117.002 20.4087 116.973 20.3133 116.914 20.152C116.87 19.976 116.848 19.8733 116.848 19.844C116.848 19.756 116.885 19.7047 116.958 19.69C117.032 19.6753 117.098 19.668 117.156 19.668C117.215 19.668 117.266 19.6753 117.31 19.69C117.369 19.7047 117.413 19.756 117.442 19.844V19.998C117.442 20.0713 117.442 20.1447 117.442 20.218C117.457 20.2913 117.464 20.3647 117.464 20.438V20.592C117.464 20.8707 117.457 21.12 117.442 21.34C117.428 21.56 117.376 21.802 117.288 22.066L117.156 21.934ZM116.958 32.252L116.826 32.12C116.826 32.0613 116.819 31.9733 116.804 31.856C116.804 31.724 116.797 31.592 116.782 31.46C116.768 31.328 116.753 31.2033 116.738 31.086C116.724 30.9687 116.709 30.8807 116.694 30.822C116.694 30.7487 116.687 30.6387 116.672 30.492C116.658 30.3453 116.65 30.2207 116.65 30.118C116.65 30.0447 116.658 30.008 116.672 30.008C116.731 30.008 116.782 30.0153 116.826 30.03C116.885 30.0447 116.929 30.096 116.958 30.184V30.338C116.958 30.4113 116.958 30.4847 116.958 30.558C116.973 30.6313 116.98 30.7047 116.98 30.778V30.932C116.98 31.2107 116.995 31.438 117.024 31.614C117.068 31.7753 117.046 31.988 116.958 32.252ZM138.791 33.264C138.732 33.2493 138.703 33.2713 138.703 33.33C138.703 33.4033 138.732 33.4253 138.791 33.396C138.849 33.3667 138.879 33.3373 138.879 33.308C138.879 33.2787 138.849 33.264 138.791 33.264ZM138.923 32.494V32.802C138.937 32.8313 138.967 32.8827 139.011 32.956C139.069 33.0147 139.128 33.0733 139.187 33.132C139.26 33.2053 139.326 33.264 139.385 33.308C139.443 33.3667 139.487 33.396 139.517 33.396C139.546 33.352 139.597 33.2713 139.671 33.154C139.744 33.0513 139.795 32.9853 139.825 32.956L139.869 32.934C139.898 32.934 139.92 32.9413 139.935 32.956C139.964 32.956 139.979 32.956 139.979 32.956C140.008 32.956 140.059 32.9707 140.133 33C140.206 33.044 140.25 33.0807 140.265 33.11L140.573 32.208C140.573 32.208 140.595 32.032 140.639 31.68C140.683 31.3133 140.734 30.888 140.793 30.404C140.866 29.9053 140.932 29.3993 140.991 28.886C141.064 28.3727 141.123 27.962 141.167 27.654C141.211 27.2873 141.24 26.9353 141.255 26.598C141.269 26.246 141.284 25.9013 141.299 25.564C141.328 25.2267 141.365 24.8893 141.409 24.552C141.453 24.2147 141.519 23.8627 141.607 23.496C141.651 23.2613 141.709 22.9607 141.783 22.594C141.871 22.2273 141.951 21.868 142.025 21.516C142.113 21.164 142.186 20.8633 142.245 20.614C142.303 20.3647 142.34 20.24 142.355 20.24L142.487 20.086H144.269V19.052C144.254 19.052 144.21 19.0373 144.137 19.008C144.078 18.9787 144.005 18.942 143.917 18.898C143.843 18.854 143.77 18.81 143.697 18.766C143.623 18.7073 143.572 18.656 143.543 18.612L144.269 17.71V17.424H142.641V17.27C142.685 17.2553 142.758 17.2407 142.861 17.226C142.978 17.1967 143.103 17.1673 143.235 17.138C143.367 17.1087 143.484 17.0793 143.587 17.05C143.704 17.0207 143.785 16.9913 143.829 16.962C143.946 16.918 144.049 16.8667 144.137 16.808C144.239 16.7493 144.291 16.6467 144.291 16.5C144.291 16.3387 144.203 16.192 144.027 16.06C143.865 15.9133 143.704 15.818 143.543 15.774H143.235C143.103 15.774 142.956 15.774 142.795 15.774C142.648 15.7593 142.501 15.752 142.355 15.752H142.047C141.533 15.752 141.027 15.7813 140.529 15.84C140.045 15.8987 139.546 15.928 139.033 15.928C138.578 15.928 138.131 15.8987 137.691 15.84C137.265 15.7813 136.825 15.752 136.371 15.752C136.253 15.752 136.107 15.7593 135.931 15.774C135.755 15.774 135.579 15.796 135.403 15.84C135.227 15.884 135.073 15.9573 134.941 16.06C134.823 16.148 134.765 16.28 134.765 16.456V16.522C134.779 16.5513 134.801 16.5807 134.831 16.61C134.875 16.6393 134.904 16.6613 134.919 16.676C134.948 16.6907 135.007 16.7127 135.095 16.742C135.183 16.7713 135.278 16.8007 135.381 16.83C135.483 16.8593 135.571 16.8887 135.645 16.918C135.733 16.9327 135.791 16.9473 135.821 16.962C135.777 17.05 135.703 17.1087 135.601 17.138C135.498 17.1673 135.395 17.1893 135.293 17.204C135.205 17.2187 135.117 17.248 135.029 17.292C134.955 17.3213 134.919 17.38 134.919 17.468C134.919 17.5853 134.97 17.6807 135.073 17.754C135.19 17.8127 135.249 17.9007 135.249 18.018C135.249 18.1353 135.19 18.2233 135.073 18.282C134.97 18.326 134.919 18.4067 134.919 18.524C134.919 18.6853 134.999 18.7733 135.161 18.788C135.322 18.8027 135.505 18.8027 135.711 18.788C135.931 18.7587 136.136 18.7513 136.327 18.766C136.517 18.7807 136.642 18.876 136.701 19.052C136.613 19.0373 136.466 19.0373 136.261 19.052C136.07 19.052 135.872 19.0813 135.667 19.14C135.476 19.1987 135.3 19.2867 135.139 19.404C134.992 19.5067 134.919 19.6533 134.919 19.844C134.919 19.9467 135.029 20.0347 135.249 20.108C135.469 20.1667 135.711 20.218 135.975 20.262C136.253 20.2913 136.517 20.3207 136.767 20.35C137.031 20.3647 137.207 20.3793 137.295 20.394C137.309 20.526 137.331 20.768 137.361 21.12C137.405 21.472 137.441 21.846 137.471 22.242C137.5 22.638 137.529 23.012 137.559 23.364C137.588 23.716 137.603 23.958 137.603 24.09C137.603 24.2953 137.603 24.6107 137.603 25.036C137.617 25.4467 137.625 25.916 137.625 26.444C137.625 26.708 137.625 27.0013 137.625 27.324C137.639 27.6467 137.647 27.9767 137.647 28.314C137.647 28.6513 137.647 28.9813 137.647 29.304C137.661 29.6267 137.669 29.92 137.669 30.184C137.669 30.712 137.669 31.1887 137.669 31.614C137.683 32.0247 137.691 32.3327 137.691 32.538C137.705 32.538 137.713 32.538 137.713 32.538C137.727 32.5233 137.735 32.516 137.735 32.516L138.043 32.362C138.057 32.3473 138.079 32.3473 138.109 32.362C138.153 32.3767 138.182 32.384 138.197 32.384V32.802C138.343 32.714 138.446 32.6113 138.505 32.494C138.563 32.362 138.607 32.2227 138.637 32.076C138.651 32.0027 138.673 31.8853 138.703 31.724C138.732 31.548 138.761 31.3647 138.791 31.174C138.82 30.9833 138.842 30.8073 138.857 30.646C138.886 30.4847 138.908 30.3673 138.923 30.294H139.055C139.055 30.6753 139.033 31.042 138.989 31.394C138.945 31.746 138.923 32.1127 138.923 32.494ZM140.265 19.8H141.167V19.888C140.947 19.888 140.785 19.9687 140.683 20.13C140.58 20.2767 140.507 20.46 140.463 20.68C140.419 20.8853 140.382 21.1053 140.353 21.34C140.338 21.56 140.309 21.736 140.265 21.868V19.8ZM145.109 29.634C145.109 30.338 145.102 31.0347 145.087 31.724C145.087 32.4133 145.19 33.088 145.395 33.748C145.512 33.7187 145.571 33.6233 145.571 33.462V33.176C145.571 33.1173 145.564 33.0367 145.549 32.934C145.549 32.8167 145.549 32.7433 145.549 32.714C145.549 32.6847 145.52 32.5893 145.461 32.428C145.417 32.252 145.395 32.1493 145.395 32.12C145.395 32.0173 145.446 31.966 145.549 31.966C145.652 32.0247 145.747 32.1567 145.835 32.362C145.923 32.5527 145.974 32.67 145.989 32.714L146.429 29.59L146.495 29.568C146.583 29.568 146.642 29.612 146.671 29.7C146.715 29.788 146.737 29.8907 146.737 30.008C146.737 30.1107 146.73 30.2133 146.715 30.316C146.715 30.404 146.715 30.4553 146.715 30.47V30.536V30.624L146.737 31.086V31.24C146.737 31.3427 146.774 31.526 146.847 31.79C146.92 32.054 147.008 32.3253 147.111 32.604C147.214 32.868 147.324 33.1027 147.441 33.308C147.558 33.528 147.668 33.638 147.771 33.638V32.56C147.771 32.5013 147.742 32.45 147.683 32.406C147.624 32.362 147.551 32.318 147.463 32.274C147.39 32.2153 147.324 32.1493 147.265 32.076C147.206 32.0027 147.177 31.9073 147.177 31.79C147.177 31.7607 147.214 31.7607 147.287 31.79C147.375 31.8193 147.419 31.834 147.419 31.834L148.079 31.24C148.108 31.2107 148.16 31.2693 148.233 31.416C148.306 31.5627 148.38 31.7387 148.453 31.944C148.526 32.1347 148.592 32.3253 148.651 32.516C148.724 32.7067 148.776 32.824 148.805 32.868C148.952 32.6773 149.062 32.34 149.135 31.856C149.208 31.372 149.267 30.8513 149.311 30.294C149.355 29.722 149.392 29.172 149.421 28.644C149.45 28.1013 149.494 27.676 149.553 27.368C149.582 27.2947 149.634 27.2433 149.707 27.214C149.707 27.214 149.714 27.214 149.729 27.214C149.744 27.1993 149.758 27.192 149.773 27.192C149.788 27.192 149.802 27.1993 149.817 27.214C149.846 27.214 149.861 27.214 149.861 27.214C150.228 27.5073 150.572 27.8813 150.895 28.336C151.232 28.776 151.54 29.238 151.819 29.722C152.098 30.206 152.354 30.69 152.589 31.174C152.838 31.6433 153.066 32.0613 153.271 32.428C153.418 32.6627 153.55 32.8533 153.667 33C153.799 33.132 154.012 33.198 154.305 33.198C154.349 33.198 154.422 33.1907 154.525 33.176C154.642 33.176 154.716 33.1687 154.745 33.154C154.716 33.11 154.664 33.0147 154.591 32.868C154.532 32.7213 154.488 32.6187 154.459 32.56C154.459 32.5307 154.466 32.4793 154.481 32.406C154.496 32.3327 154.503 32.2887 154.503 32.274H154.745L155.493 33.022H155.559H155.647L156.527 32.868V32.428L155.647 28.864C155.339 28.3653 155.097 27.83 154.921 27.258C154.76 26.6713 154.554 26.114 154.305 25.586C154.745 25.3953 155.148 25.146 155.515 24.838C155.882 24.53 156.197 24.1853 156.461 23.804C156.725 23.408 156.93 22.9827 157.077 22.528C157.224 22.0733 157.297 21.6113 157.297 21.142C157.297 20.5113 157.165 19.888 156.901 19.272C156.637 18.6413 156.278 18.0767 155.823 17.578C155.383 17.0793 154.862 16.6833 154.261 16.39C153.674 16.082 153.044 15.928 152.369 15.928H145.791V16.786C145.791 16.786 145.754 16.8007 145.681 16.83C145.622 16.8447 145.578 16.8447 145.549 16.83C145.461 16.8007 145.402 16.7567 145.373 16.698C145.344 16.6247 145.314 16.5513 145.285 16.478C145.256 16.4047 145.219 16.346 145.175 16.302C145.131 16.2433 145.058 16.214 144.955 16.214C144.823 16.214 144.735 16.28 144.691 16.412C144.662 16.5293 144.647 16.6467 144.647 16.764V16.984V17.424C144.647 17.6 144.647 17.9227 144.647 18.392C144.662 18.8613 144.676 19.36 144.691 19.888C144.706 20.4013 144.72 20.8927 144.735 21.362C144.764 21.8167 144.786 22.1393 144.801 22.33C144.948 22.7553 145.043 23.1953 145.087 23.65C145.146 24.09 145.182 24.5373 145.197 24.992C145.212 25.4467 145.212 25.9013 145.197 26.356C145.197 26.796 145.212 27.236 145.241 27.676C145.241 27.7053 145.241 27.7933 145.241 27.94C145.256 28.0867 145.263 28.1967 145.263 28.27C145.263 28.534 145.234 28.7687 145.175 28.974C145.131 29.1647 145.109 29.3847 145.109 29.634ZM145.835 30.932L145.703 31.086V30.888C145.703 30.7853 145.696 30.6827 145.681 30.58C145.681 30.4627 145.681 30.3527 145.681 30.25V30.052L145.835 30.932ZM154.459 27.676V27.522C154.635 27.6393 154.782 27.8007 154.899 28.006C155.016 28.2113 155.112 28.4387 155.185 28.688C155.258 28.9227 155.31 29.1647 155.339 29.414C155.368 29.6487 155.383 29.8613 155.383 30.052H155.207L154.459 27.676ZM148.079 26.488H148.211L148.079 26.62V26.488ZM147.485 25.3C147.544 25.3587 147.573 25.432 147.573 25.52C147.573 25.608 147.544 25.6813 147.485 25.74C147.426 25.7547 147.397 25.6813 147.397 25.52C147.397 25.4467 147.404 25.388 147.419 25.344C147.434 25.2853 147.456 25.2707 147.485 25.3ZM151.489 25.586C151.504 25.586 151.526 25.586 151.555 25.586C151.584 25.5713 151.614 25.564 151.643 25.564C151.702 25.564 151.753 25.5713 151.797 25.586C151.856 25.6007 151.9 25.652 151.929 25.74H151.489V25.586ZM147.331 24.398V19.954L147.485 20.548V24.552L147.331 24.398ZM156.087 22.924C156.072 23.0267 156.036 23.1587 155.977 23.32C155.933 23.4813 155.867 23.6427 155.779 23.804C155.691 23.9653 155.588 24.1047 155.471 24.222C155.368 24.3393 155.251 24.398 155.119 24.398H155.053C155.068 24.3687 155.09 24.3247 155.119 24.266C155.148 24.1927 155.178 24.1413 155.207 24.112C155.266 23.9947 155.354 23.8407 155.471 23.65C155.588 23.4447 155.691 23.276 155.779 23.144C155.867 23.012 155.918 22.9387 155.933 22.924H156.087ZM149.993 23.958C149.993 23.8553 150 23.6647 150.015 23.386C150.03 23.0927 150.044 22.7847 150.059 22.462C150.088 22.1393 150.11 21.8387 150.125 21.56C150.14 21.2813 150.147 21.0907 150.147 20.988C150.147 20.944 150.154 20.8707 150.169 20.768C150.184 20.6653 150.198 20.5627 150.213 20.46C150.242 20.3427 150.264 20.24 150.279 20.152C150.294 20.0493 150.301 19.9833 150.301 19.954C150.33 19.9247 150.404 19.8953 150.521 19.866C150.638 19.822 150.712 19.8 150.741 19.8H150.829C151.049 19.8 151.247 19.8587 151.423 19.976C151.614 20.0933 151.768 20.2473 151.885 20.438C152.002 20.614 152.09 20.812 152.149 21.032C152.222 21.252 152.259 21.4573 152.259 21.648C152.259 21.8827 152.208 22.1467 152.105 22.44C152.017 22.7187 151.885 22.9827 151.709 23.232C151.533 23.4813 151.32 23.694 151.071 23.87C150.836 24.0313 150.58 24.112 150.301 24.112C150.228 24.112 150.162 24.1047 150.103 24.09C150.059 24.0753 150.022 24.0313 149.993 23.958ZM154.019 17.424C154.048 17.336 154.085 17.2847 154.129 17.27C154.188 17.2553 154.246 17.248 154.305 17.248C154.437 17.248 154.598 17.3067 154.789 17.424C154.994 17.5267 155.185 17.6587 155.361 17.82C155.537 17.9813 155.684 18.15 155.801 18.326C155.933 18.502 155.999 18.6633 155.999 18.81C155.97 18.81 155.889 18.766 155.757 18.678C155.625 18.5753 155.478 18.4653 155.317 18.348C155.156 18.216 155.002 18.0913 154.855 17.974C154.708 17.8567 154.613 17.7833 154.569 17.754C154.554 17.754 154.518 17.7393 154.459 17.71C154.4 17.666 154.334 17.6293 154.261 17.6C154.202 17.556 154.144 17.5193 154.085 17.49C154.041 17.446 154.019 17.424 154.019 17.424ZM148.387 16.39C148.592 16.39 148.754 16.3973 148.871 16.412C148.988 16.412 149.164 16.4487 149.399 16.522H146.429C146.488 16.5073 146.59 16.4927 146.737 16.478C146.898 16.4633 147.067 16.4487 147.243 16.434C147.419 16.4193 147.58 16.412 147.727 16.412C147.888 16.3973 148.006 16.39 148.079 16.39H148.387ZM158.013 31.834C158.013 31.922 158.027 32.0467 158.057 32.208C158.086 32.3693 158.115 32.538 158.145 32.714C158.189 32.89 158.225 33.0513 158.255 33.198C158.284 33.3593 158.306 33.484 158.321 33.572C158.335 33.6013 158.357 33.6747 158.387 33.792C158.431 33.9093 158.46 33.9827 158.475 34.012C158.504 33.9827 158.533 33.9093 158.563 33.792C158.607 33.6747 158.629 33.6013 158.629 33.572C158.643 33.528 158.665 33.4033 158.695 33.198C158.724 32.9927 158.746 32.7727 158.761 32.538C158.79 32.3033 158.819 32.0833 158.849 31.878C158.878 31.6727 158.9 31.548 158.915 31.504C158.929 31.4013 158.959 31.262 159.003 31.086C159.061 30.91 159.113 30.7633 159.157 30.646C159.201 30.5287 159.223 30.4627 159.223 30.448H159.333C159.333 30.5067 159.34 30.6093 159.355 30.756C159.384 30.9027 159.391 30.998 159.377 31.042C159.377 31.1007 159.347 31.2327 159.289 31.438C159.245 31.6287 159.223 31.746 159.223 31.79C159.223 31.8193 159.237 31.8853 159.267 31.988C159.311 32.0907 159.347 32.1713 159.377 32.23L159.971 33.418C160.191 33.2713 160.345 33.0073 160.433 32.626C160.521 32.23 160.594 31.8267 160.653 31.416C160.726 31.0053 160.814 30.646 160.917 30.338C161.019 30.0153 161.195 29.854 161.445 29.854H164.569L165.009 31.944C165.111 31.9733 165.251 32.0613 165.427 32.208C165.617 32.3547 165.808 32.5087 165.999 32.67C166.189 32.8167 166.358 32.9413 166.505 33.044C166.666 33.1467 166.761 33.176 166.791 33.132L167.099 32.538V30.162C167.275 30.4553 167.385 30.7193 167.429 30.954C167.473 31.174 167.524 31.3793 167.583 31.57C167.641 31.746 167.737 31.9293 167.869 32.12C168.001 32.296 168.235 32.4867 168.573 32.692C168.617 32.7213 168.712 32.7947 168.859 32.912C169.02 33.0147 169.123 33.088 169.167 33.132C169.167 33.1173 169.167 33.0953 169.167 33.066C169.181 33.0367 169.189 33.0073 169.189 32.978C169.189 32.846 169.152 32.7507 169.079 32.692C169.02 32.6187 168.954 32.5527 168.881 32.494C168.807 32.4353 168.734 32.384 168.661 32.34C168.602 32.2813 168.573 32.2007 168.573 32.098C168.573 32.0247 168.587 31.9513 168.617 31.878C168.646 31.8047 168.705 31.768 168.793 31.768C168.807 31.768 168.822 31.7753 168.837 31.79C168.866 31.79 168.881 31.79 168.881 31.79C168.925 31.8193 169.02 31.8707 169.167 31.944C169.313 32.0173 169.416 32.0687 169.475 32.098C169.577 32.0833 169.629 32.0173 169.629 31.9V31.614C169.629 31.5847 169.621 31.5333 169.607 31.46C169.607 31.3867 169.607 31.35 169.607 31.35L168.573 27.478V26.004L166.945 16.94C166.93 16.8227 166.893 16.698 166.835 16.566C166.776 16.4193 166.703 16.2873 166.615 16.17C166.527 16.0527 166.417 15.9573 166.285 15.884C166.167 15.796 166.043 15.752 165.911 15.752C165.749 15.752 165.595 15.8033 165.449 15.906C165.317 16.0087 165.17 16.06 165.009 16.06C164.935 16.06 164.877 16.0527 164.833 16.038C164.789 16.0233 164.745 16.0087 164.701 15.994C164.671 15.9647 164.627 15.9427 164.569 15.928C164.525 15.8987 164.451 15.884 164.349 15.884C164.246 15.884 164.121 15.8913 163.975 15.906C163.843 15.9207 163.696 15.9353 163.535 15.95C163.388 15.9647 163.249 15.9867 163.117 16.016C162.985 16.0307 162.875 16.0453 162.787 16.06C162.64 16.0893 162.493 16.1627 162.347 16.28C162.2 16.3827 162.061 16.5 161.929 16.632C161.797 16.7493 161.679 16.8593 161.577 16.962C161.489 17.05 161.423 17.094 161.379 17.094H161.291C161.291 17.05 161.283 16.9693 161.269 16.852C161.269 16.7347 161.254 16.6173 161.225 16.5C161.195 16.368 161.151 16.258 161.093 16.17C161.034 16.0673 160.953 16.016 160.851 16.016C160.836 16.016 160.807 16.0233 160.763 16.038C160.733 16.0527 160.711 16.06 160.697 16.06C160.667 16.1333 160.616 16.28 160.543 16.5C160.469 16.7053 160.389 16.9253 160.301 17.16C160.227 17.3947 160.154 17.622 160.081 17.842C160.022 18.0473 159.985 18.194 159.971 18.282C159.927 18.4873 159.853 18.7953 159.751 19.206C159.648 19.6167 159.531 20.0787 159.399 20.592C159.281 21.1053 159.149 21.648 159.003 22.22C158.856 22.792 158.717 23.3347 158.585 23.848C158.467 24.3613 158.357 24.8233 158.255 25.234C158.152 25.6447 158.079 25.9527 158.035 26.158C158.02 26.598 157.961 27.0307 157.859 27.456C157.771 27.8813 157.668 28.3067 157.551 28.732C157.448 29.1573 157.353 29.59 157.265 30.03C157.177 30.4553 157.133 30.8953 157.133 31.35V31.79L157.705 31.526C157.705 31.526 157.712 31.526 157.727 31.526C157.756 31.5113 157.778 31.504 157.793 31.504L157.859 31.526C157.888 31.5553 157.917 31.6067 157.947 31.68C157.976 31.7533 157.998 31.8047 158.013 31.834ZM161.621 26.488C161.767 25.608 161.973 24.7133 162.237 23.804C162.501 22.8947 162.779 22.044 163.073 21.252L163.227 21.406L164.261 26.158L164.283 26.488C163.857 26.5467 163.491 26.5907 163.183 26.62C162.889 26.6347 162.552 26.642 162.171 26.642C162.127 26.642 162.031 26.6493 161.885 26.664C161.738 26.664 161.65 26.6053 161.621 26.488ZM166.197 17.842C166.211 17.842 166.226 17.842 166.241 17.842C166.255 17.8273 166.27 17.82 166.285 17.82C166.387 17.82 166.475 17.974 166.549 18.282C166.637 18.5753 166.71 18.9127 166.769 19.294C166.827 19.6607 166.871 20.0127 166.901 20.35C166.93 20.6873 166.945 20.8853 166.945 20.944C166.945 20.9733 166.923 21.0027 166.879 21.032C166.849 21.0467 166.82 21.0687 166.791 21.098C166.791 21.098 166.776 21.1053 166.747 21.12C166.717 21.1347 166.703 21.1273 166.703 21.098C166.688 20.966 166.659 20.7607 166.615 20.482C166.585 20.1887 166.541 19.8733 166.483 19.536C166.439 19.1987 166.387 18.876 166.329 18.568C166.285 18.26 166.241 18.018 166.197 17.842ZM158.739 26.972V27.148C158.739 27.2213 158.739 27.3093 158.739 27.412C158.753 27.5147 158.761 27.61 158.761 27.698V27.852V28.094C158.761 28.1967 158.753 28.292 158.739 28.38C158.739 28.468 158.739 28.5487 158.739 28.622V28.754C158.739 28.8713 158.717 29.0253 158.673 29.216C158.643 29.4067 158.614 29.502 158.585 29.502H158.453V29.348L158.585 27.126L158.739 26.972ZM172.553 32.89C172.744 32.89 172.876 32.9707 172.949 33.132C173.037 33.308 173.045 33.4767 172.971 33.638C173.118 33.594 173.257 33.5133 173.389 33.396C173.521 33.2787 173.587 33.132 173.587 32.956L173.565 32.912C173.551 32.8827 173.507 32.8533 173.433 32.824C173.36 32.78 173.309 32.758 173.279 32.758L173.125 32.604C173.125 32.5747 173.147 32.5013 173.191 32.384C173.25 32.252 173.279 32.1787 173.279 32.164C173.309 31.9733 173.353 31.702 173.411 31.35C173.47 30.9833 173.529 30.6093 173.587 30.228C173.661 29.8467 173.719 29.502 173.763 29.194C173.822 28.886 173.859 28.688 173.873 28.6C173.888 28.512 173.91 28.2993 173.939 27.962C173.969 27.6247 173.998 27.2653 174.027 26.884C174.071 26.5027 174.101 26.1507 174.115 25.828C174.145 25.4907 174.159 25.278 174.159 25.19C174.247 24.4713 174.35 23.7673 174.467 23.078C174.585 22.374 174.695 21.6773 174.797 20.988C174.915 20.284 175.01 19.58 175.083 18.876C175.157 18.172 175.193 17.4533 175.193 16.72V15.972C175.193 15.8987 175.149 15.8473 175.061 15.818H174.973H174.907C174.878 15.8473 174.812 15.884 174.709 15.928C174.621 15.972 174.519 16.016 174.401 16.06C174.284 16.104 174.174 16.148 174.071 16.192C173.969 16.236 173.903 16.2653 173.873 16.28C173.844 16.2507 173.771 16.2213 173.653 16.192C173.536 16.148 173.455 16.126 173.411 16.126H173.367C172.971 16.126 172.7 16.2213 172.553 16.412C172.421 16.588 172.311 16.8373 172.223 17.16C172.15 17.1453 172.099 17.1013 172.069 17.028C172.055 16.94 172.047 16.852 172.047 16.764C172.047 16.676 172.055 16.5953 172.069 16.522C172.084 16.4487 172.091 16.412 172.091 16.412C172.062 16.368 171.974 16.3313 171.827 16.302C171.681 16.2727 171.519 16.2433 171.343 16.214C171.167 16.1847 170.999 16.1627 170.837 16.148C170.676 16.1333 170.573 16.126 170.529 16.126C170.368 16.126 170.214 16.1993 170.067 16.346C169.921 16.478 169.847 16.6247 169.847 16.786C169.847 16.9913 169.891 17.1967 169.979 17.402C170.067 17.5927 170.126 17.8127 170.155 18.062C170.17 18.2233 170.192 18.4727 170.221 18.81C170.251 19.1473 170.28 19.492 170.309 19.844C170.353 20.196 170.383 20.5187 170.397 20.812C170.427 21.0907 170.441 21.2593 170.441 21.318C170.529 23.0927 170.566 24.8527 170.551 26.598C170.537 28.3433 170.603 30.096 170.749 31.856C170.749 31.8853 170.749 31.966 170.749 32.098C170.764 32.2153 170.771 32.2887 170.771 32.318H171.189C171.189 32.3767 171.226 32.5013 171.299 32.692C171.373 32.8827 171.439 33 171.497 33.044C171.497 33.044 171.527 33.044 171.585 33.044C171.659 33.0587 171.717 33.066 171.761 33.066C171.923 33.066 172.055 33.0367 172.157 32.978C172.26 32.9193 172.392 32.89 172.553 32.89ZM171.783 28.6C171.886 28.6 171.937 28.6513 171.937 28.754C171.952 28.798 171.967 28.8713 171.981 28.974C171.996 29.062 172.011 29.1647 172.025 29.282C172.04 29.3847 172.055 29.4873 172.069 29.59C172.084 29.678 172.091 29.744 172.091 29.788C172.091 29.8613 172.062 29.942 172.003 30.03C171.945 30.1033 171.871 30.14 171.783 30.14V28.6ZM170.969 22.154C170.984 22.154 170.984 22.22 170.969 22.352C170.955 22.484 170.933 22.638 170.903 22.814C170.889 22.9753 170.867 23.122 170.837 23.254C170.823 23.386 170.815 23.452 170.815 23.452C170.815 23.4813 170.793 23.5107 170.749 23.54C170.705 23.5547 170.683 23.5253 170.683 23.452C170.683 23.4373 170.691 23.364 170.705 23.232C170.735 23.0853 170.764 22.9313 170.793 22.77C170.837 22.6087 170.874 22.4693 170.903 22.352C170.933 22.22 170.955 22.154 170.969 22.154ZM171.585 18.656L171.937 18.854L172.047 22.726C172.047 22.726 172.025 22.5573 171.981 22.22C171.937 21.868 171.886 21.4867 171.827 21.076C171.783 20.6507 171.739 20.2693 171.695 19.932C171.651 19.58 171.629 19.3967 171.629 19.382C171.629 19.3233 171.622 19.206 171.607 19.03C171.593 18.8393 171.585 18.7147 171.585 18.656ZM176.202 31.768L176.07 32.824L181.306 33.176H181.768C181.915 33.176 182.069 33.1613 182.23 33.132C182.391 33.1173 182.545 33.0807 182.692 33.022C182.839 32.978 182.956 32.912 183.044 32.824C183.147 32.7213 183.198 32.5967 183.198 32.45L183.176 32.406C183.147 32.362 183.066 32.2813 182.934 32.164C182.817 32.032 182.736 31.9513 182.692 31.922L183.308 31.636L182.538 30.998C182.553 30.9833 182.597 30.9173 182.67 30.8C182.758 30.6827 182.846 30.5507 182.934 30.404C183.022 30.2573 183.103 30.1253 183.176 30.008C183.249 29.8907 183.286 29.8173 183.286 29.788C183.286 29.7293 183.249 29.6853 183.176 29.656C183.103 29.612 183.015 29.5827 182.912 29.568C182.809 29.5387 182.699 29.524 182.582 29.524C182.465 29.5093 182.369 29.502 182.296 29.502H179.678C179.737 28.5047 179.803 27.6833 179.876 27.038C179.964 26.3927 180.052 25.85 180.14 25.41C180.228 24.9553 180.316 24.5593 180.404 24.222C180.492 23.87 180.58 23.5033 180.668 23.122L180.646 22.044C180.646 21.78 180.661 21.516 180.69 21.252C180.734 20.988 180.822 20.7313 180.954 20.482C180.998 20.042 181.049 19.602 181.108 19.162C181.167 18.7073 181.218 18.282 181.262 17.886C181.306 17.49 181.343 17.138 181.372 16.83C181.416 16.522 181.438 16.28 181.438 16.104C181.438 15.928 181.416 15.84 181.372 15.84L180.822 15.994H176.862H176.268C176.077 15.994 175.901 16.0967 175.74 16.302V17.116L175.894 24.464C175.894 24.5373 175.96 24.618 176.092 24.706C176.224 24.7793 176.29 24.86 176.29 24.948C176.29 25.0067 176.261 25.058 176.202 25.102C176.158 25.146 176.055 25.2047 175.894 25.278L176.07 25.432L176.202 31.768ZM178.27 31.658V31.922C178.27 31.922 178.233 31.9293 178.16 31.944C178.087 31.9587 177.999 31.9733 177.896 31.988C177.808 32.0027 177.713 32.0173 177.61 32.032C177.507 32.0467 177.412 32.0613 177.324 32.076H176.994C177.067 31.9147 177.214 31.8047 177.434 31.746C177.654 31.6873 177.845 31.658 178.006 31.658H178.27ZM181.416 31.46L181.724 31.812L179.656 31.878L181.416 31.46ZM177.17 17.138C177.17 17.006 177.177 16.9033 177.192 16.83C177.221 16.7567 177.317 16.6833 177.478 16.61L177.5 16.962V17.644C177.5 17.8933 177.493 18.172 177.478 18.48C177.478 18.788 177.471 19.0887 177.456 19.382C177.456 19.6607 177.441 19.91 177.412 20.13C177.397 20.3353 177.375 20.4673 177.346 20.526C177.317 20.4527 177.287 20.2473 177.258 19.91C177.243 19.5727 177.229 19.2133 177.214 18.832C177.199 18.436 177.185 18.0767 177.17 17.754C177.17 17.4167 177.17 17.2113 177.17 17.138ZM184.519 32.868L184.673 33C184.687 32.9853 184.709 32.9487 184.739 32.89C184.768 32.8167 184.805 32.7433 184.849 32.67C184.907 32.5967 184.966 32.5307 185.025 32.472C185.083 32.4133 185.142 32.384 185.201 32.384L185.267 32.406C185.443 32.5527 185.567 32.692 185.641 32.824C185.729 32.9413 185.897 33 186.147 33H191.955C192.057 33 192.131 32.9193 192.175 32.758C192.233 32.5967 192.263 32.4793 192.263 32.406C192.263 32.3767 192.255 32.3473 192.241 32.318C192.241 32.2887 192.241 32.274 192.241 32.274H191.999C191.823 32.274 191.595 32.252 191.317 32.208C191.038 32.164 190.855 32.0613 190.767 31.9H191.647V30.03C191.72 29.9567 191.815 29.832 191.933 29.656C192.05 29.48 192.109 29.326 192.109 29.194C192.109 29.1793 192.101 29.172 192.087 29.172C192.087 29.1573 192.087 29.15 192.087 29.15C192.057 29.106 191.984 29.062 191.867 29.018C191.749 28.9593 191.676 28.93 191.647 28.93H188.523C188.508 28.93 188.493 28.8713 188.479 28.754C188.464 28.6367 188.449 28.4973 188.435 28.336C188.42 28.16 188.405 27.984 188.391 27.808C188.391 27.632 188.391 27.4853 188.391 27.368C188.391 27.3093 188.405 27.2067 188.435 27.06C188.464 26.9133 188.493 26.818 188.523 26.774C188.757 26.7153 189.029 26.6713 189.337 26.642C189.645 26.598 189.953 26.5687 190.261 26.554C190.569 26.5393 190.855 26.5247 191.119 26.51C191.397 26.4953 191.625 26.4807 191.801 26.466L191.955 26.334C191.911 26.1873 191.83 26.1067 191.713 26.092C191.61 26.0627 191.5 26.0553 191.383 26.07C191.265 26.07 191.155 26.07 191.053 26.07C190.965 26.0553 190.913 25.9893 190.899 25.872C190.987 25.7253 191.119 25.6373 191.295 25.608C191.485 25.564 191.654 25.5053 191.801 25.432C191.713 25.3293 191.625 25.256 191.537 25.212C191.449 25.1533 191.368 25.0947 191.295 25.036C191.221 24.9773 191.163 24.9113 191.119 24.838C191.075 24.75 191.053 24.6253 191.053 24.464H189.425C189.557 24.42 189.755 24.3907 190.019 24.376C190.283 24.3467 190.547 24.31 190.811 24.266C191.075 24.2073 191.302 24.1193 191.493 24.002C191.698 23.87 191.801 23.672 191.801 23.408V23.364C191.757 23.364 191.691 23.3567 191.603 23.342C191.529 23.3273 191.441 23.3127 191.339 23.298C191.251 23.2687 191.163 23.2467 191.075 23.232C191.001 23.2173 190.943 23.21 190.899 23.21C190.869 23.1953 190.84 23.1587 190.811 23.1C190.781 23.0413 190.767 23.0047 190.767 22.99H188.985L188.831 22.77V22.22V21.516C188.831 21.252 188.882 21.0247 188.985 20.834C189.293 20.7753 189.608 20.7387 189.931 20.724C190.253 20.7093 190.569 20.6873 190.877 20.658C191.199 20.614 191.515 20.5553 191.823 20.482C192.131 20.394 192.417 20.262 192.681 20.086C192.329 19.8513 192.028 19.6827 191.779 19.58C191.544 19.4773 191.207 19.3967 190.767 19.338V19.206C190.913 19.1913 191.104 19.162 191.339 19.118C191.573 19.074 191.801 19.008 192.021 18.92C192.255 18.832 192.453 18.7147 192.615 18.568C192.776 18.4213 192.857 18.2307 192.857 17.996C192.857 17.908 192.813 17.842 192.725 17.798C192.651 17.7393 192.563 17.6953 192.461 17.666C192.373 17.6367 192.277 17.6147 192.175 17.6C192.072 17.5853 191.999 17.5707 191.955 17.556C191.955 17.5413 191.947 17.5267 191.933 17.512C191.933 17.4973 191.933 17.4827 191.933 17.468C191.933 17.3507 191.991 17.27 192.109 17.226C192.241 17.1673 192.38 17.116 192.527 17.072C192.688 17.0133 192.835 16.9473 192.967 16.874C193.099 16.786 193.165 16.654 193.165 16.478C193.165 16.2287 193.091 16.082 192.945 16.038C192.813 15.994 192.629 15.9573 192.395 15.928H192.043C191.881 15.928 191.713 15.928 191.537 15.928C191.361 15.9133 191.192 15.906 191.031 15.906H190.679C190.092 15.906 189.52 15.9353 188.963 15.994C188.405 16.0527 187.848 16.082 187.291 16.082C186.865 16.082 186.447 16.0527 186.037 15.994C185.626 15.9353 185.208 15.906 184.783 15.906H184.585C184.511 15.906 184.438 15.9133 184.365 15.928C184.291 15.928 184.218 15.928 184.145 15.928H184.079L183.661 16.764L184.519 32.868ZM185.113 31.196C185.113 30.932 185.12 30.69 185.135 30.47C185.149 30.2353 185.193 29.9933 185.267 29.744L185.421 29.898V31.68L185.267 31.812L185.113 31.68V31.196ZM184.211 19.646V19.47C184.211 19.382 184.211 19.2867 184.211 19.184C184.225 19.0813 184.233 18.9933 184.233 18.92V18.744L184.365 18.898C184.379 18.898 184.394 18.9567 184.409 19.074C184.423 19.1913 184.438 19.3307 184.453 19.492C184.467 19.6533 184.482 19.822 184.497 19.998C184.511 20.1593 184.519 20.2913 184.519 20.394V20.482C184.519 20.5553 184.519 20.6287 184.519 20.702C184.533 20.7753 184.541 20.8487 184.541 20.922V21.12V21.274C184.541 21.3473 184.533 21.4207 184.519 21.494C184.519 21.5673 184.519 21.6407 184.519 21.714V21.868C184.401 21.736 184.321 21.5747 184.277 21.384C184.233 21.1933 184.203 20.9953 184.189 20.79C184.174 20.5847 184.174 20.3867 184.189 20.196C184.203 19.9907 184.211 19.8073 184.211 19.646ZM193.857 29.634C193.857 30.338 193.85 31.0347 193.835 31.724C193.835 32.4133 193.938 33.088 194.143 33.748C194.26 33.7187 194.319 33.6233 194.319 33.462V33.176C194.319 33.1173 194.312 33.0367 194.297 32.934C194.297 32.8167 194.297 32.7433 194.297 32.714C194.297 32.6847 194.268 32.5893 194.209 32.428C194.165 32.252 194.143 32.1493 194.143 32.12C194.143 32.0173 194.194 31.966 194.297 31.966C194.4 32.0247 194.495 32.1567 194.583 32.362C194.671 32.5527 194.722 32.67 194.737 32.714L195.177 29.59L195.243 29.568C195.331 29.568 195.39 29.612 195.419 29.7C195.463 29.788 195.485 29.8907 195.485 30.008C195.485 30.1107 195.478 30.2133 195.463 30.316C195.463 30.404 195.463 30.4553 195.463 30.47V30.536V30.624L195.485 31.086V31.24C195.485 31.3427 195.522 31.526 195.595 31.79C195.668 32.054 195.756 32.3253 195.859 32.604C195.962 32.868 196.072 33.1027 196.189 33.308C196.306 33.528 196.416 33.638 196.519 33.638V32.56C196.519 32.5013 196.49 32.45 196.431 32.406C196.372 32.362 196.299 32.318 196.211 32.274C196.138 32.2153 196.072 32.1493 196.013 32.076C195.954 32.0027 195.925 31.9073 195.925 31.79C195.925 31.7607 195.962 31.7607 196.035 31.79C196.123 31.8193 196.167 31.834 196.167 31.834L196.827 31.24C196.856 31.2107 196.908 31.2693 196.981 31.416C197.054 31.5627 197.128 31.7387 197.201 31.944C197.274 32.1347 197.34 32.3253 197.399 32.516C197.472 32.7067 197.524 32.824 197.553 32.868C197.7 32.6773 197.81 32.34 197.883 31.856C197.956 31.372 198.015 30.8513 198.059 30.294C198.103 29.722 198.14 29.172 198.169 28.644C198.198 28.1013 198.242 27.676 198.301 27.368C198.33 27.2947 198.382 27.2433 198.455 27.214C198.455 27.214 198.462 27.214 198.477 27.214C198.492 27.1993 198.506 27.192 198.521 27.192C198.536 27.192 198.55 27.1993 198.565 27.214C198.594 27.214 198.609 27.214 198.609 27.214C198.976 27.5073 199.32 27.8813 199.643 28.336C199.98 28.776 200.288 29.238 200.567 29.722C200.846 30.206 201.102 30.69 201.337 31.174C201.586 31.6433 201.814 32.0613 202.019 32.428C202.166 32.6627 202.298 32.8533 202.415 33C202.547 33.132 202.76 33.198 203.053 33.198C203.097 33.198 203.17 33.1907 203.273 33.176C203.39 33.176 203.464 33.1687 203.493 33.154C203.464 33.11 203.412 33.0147 203.339 32.868C203.28 32.7213 203.236 32.6187 203.207 32.56C203.207 32.5307 203.214 32.4793 203.229 32.406C203.244 32.3327 203.251 32.2887 203.251 32.274H203.493L204.241 33.022H204.307H204.395L205.275 32.868V32.428L204.395 28.864C204.087 28.3653 203.845 27.83 203.669 27.258C203.508 26.6713 203.302 26.114 203.053 25.586C203.493 25.3953 203.896 25.146 204.263 24.838C204.63 24.53 204.945 24.1853 205.209 23.804C205.473 23.408 205.678 22.9827 205.825 22.528C205.972 22.0733 206.045 21.6113 206.045 21.142C206.045 20.5113 205.913 19.888 205.649 19.272C205.385 18.6413 205.026 18.0767 204.571 17.578C204.131 17.0793 203.61 16.6833 203.009 16.39C202.422 16.082 201.792 15.928 201.117 15.928H194.539V16.786C194.539 16.786 194.502 16.8007 194.429 16.83C194.37 16.8447 194.326 16.8447 194.297 16.83C194.209 16.8007 194.15 16.7567 194.121 16.698C194.092 16.6247 194.062 16.5513 194.033 16.478C194.004 16.4047 193.967 16.346 193.923 16.302C193.879 16.2433 193.806 16.214 193.703 16.214C193.571 16.214 193.483 16.28 193.439 16.412C193.41 16.5293 193.395 16.6467 193.395 16.764V16.984V17.424C193.395 17.6 193.395 17.9227 193.395 18.392C193.41 18.8613 193.424 19.36 193.439 19.888C193.454 20.4013 193.468 20.8927 193.483 21.362C193.512 21.8167 193.534 22.1393 193.549 22.33C193.696 22.7553 193.791 23.1953 193.835 23.65C193.894 24.09 193.93 24.5373 193.945 24.992C193.96 25.4467 193.96 25.9013 193.945 26.356C193.945 26.796 193.96 27.236 193.989 27.676C193.989 27.7053 193.989 27.7933 193.989 27.94C194.004 28.0867 194.011 28.1967 194.011 28.27C194.011 28.534 193.982 28.7687 193.923 28.974C193.879 29.1647 193.857 29.3847 193.857 29.634ZM194.583 30.932L194.451 31.086V30.888C194.451 30.7853 194.444 30.6827 194.429 30.58C194.429 30.4627 194.429 30.3527 194.429 30.25V30.052L194.583 30.932ZM203.207 27.676V27.522C203.383 27.6393 203.53 27.8007 203.647 28.006C203.764 28.2113 203.86 28.4387 203.933 28.688C204.006 28.9227 204.058 29.1647 204.087 29.414C204.116 29.6487 204.131 29.8613 204.131 30.052H203.955L203.207 27.676ZM196.827 26.488H196.959L196.827 26.62V26.488ZM196.233 25.3C196.292 25.3587 196.321 25.432 196.321 25.52C196.321 25.608 196.292 25.6813 196.233 25.74C196.174 25.7547 196.145 25.6813 196.145 25.52C196.145 25.4467 196.152 25.388 196.167 25.344C196.182 25.2853 196.204 25.2707 196.233 25.3ZM200.237 25.586C200.252 25.586 200.274 25.586 200.303 25.586C200.332 25.5713 200.362 25.564 200.391 25.564C200.45 25.564 200.501 25.5713 200.545 25.586C200.604 25.6007 200.648 25.652 200.677 25.74H200.237V25.586ZM196.079 24.398V19.954L196.233 20.548V24.552L196.079 24.398ZM204.835 22.924C204.82 23.0267 204.784 23.1587 204.725 23.32C204.681 23.4813 204.615 23.6427 204.527 23.804C204.439 23.9653 204.336 24.1047 204.219 24.222C204.116 24.3393 203.999 24.398 203.867 24.398H203.801C203.816 24.3687 203.838 24.3247 203.867 24.266C203.896 24.1927 203.926 24.1413 203.955 24.112C204.014 23.9947 204.102 23.8407 204.219 23.65C204.336 23.4447 204.439 23.276 204.527 23.144C204.615 23.012 204.666 22.9387 204.681 22.924H204.835ZM198.741 23.958C198.741 23.8553 198.748 23.6647 198.763 23.386C198.778 23.0927 198.792 22.7847 198.807 22.462C198.836 22.1393 198.858 21.8387 198.873 21.56C198.888 21.2813 198.895 21.0907 198.895 20.988C198.895 20.944 198.902 20.8707 198.917 20.768C198.932 20.6653 198.946 20.5627 198.961 20.46C198.99 20.3427 199.012 20.24 199.027 20.152C199.042 20.0493 199.049 19.9833 199.049 19.954C199.078 19.9247 199.152 19.8953 199.269 19.866C199.386 19.822 199.46 19.8 199.489 19.8H199.577C199.797 19.8 199.995 19.8587 200.171 19.976C200.362 20.0933 200.516 20.2473 200.633 20.438C200.75 20.614 200.838 20.812 200.897 21.032C200.97 21.252 201.007 21.4573 201.007 21.648C201.007 21.8827 200.956 22.1467 200.853 22.44C200.765 22.7187 200.633 22.9827 200.457 23.232C200.281 23.4813 200.068 23.694 199.819 23.87C199.584 24.0313 199.328 24.112 199.049 24.112C198.976 24.112 198.91 24.1047 198.851 24.09C198.807 24.0753 198.77 24.0313 198.741 23.958ZM202.767 17.424C202.796 17.336 202.833 17.2847 202.877 17.27C202.936 17.2553 202.994 17.248 203.053 17.248C203.185 17.248 203.346 17.3067 203.537 17.424C203.742 17.5267 203.933 17.6587 204.109 17.82C204.285 17.9813 204.432 18.15 204.549 18.326C204.681 18.502 204.747 18.6633 204.747 18.81C204.718 18.81 204.637 18.766 204.505 18.678C204.373 18.5753 204.226 18.4653 204.065 18.348C203.904 18.216 203.75 18.0913 203.603 17.974C203.456 17.8567 203.361 17.7833 203.317 17.754C203.302 17.754 203.266 17.7393 203.207 17.71C203.148 17.666 203.082 17.6293 203.009 17.6C202.95 17.556 202.892 17.5193 202.833 17.49C202.789 17.446 202.767 17.424 202.767 17.424ZM197.135 16.39C197.34 16.39 197.502 16.3973 197.619 16.412C197.736 16.412 197.912 16.4487 198.147 16.522H195.177C195.236 16.5073 195.338 16.4927 195.485 16.478C195.646 16.4633 195.815 16.4487 195.991 16.434C196.167 16.4193 196.328 16.412 196.475 16.412C196.636 16.3973 196.754 16.39 196.827 16.39H197.135Z" fill="white"/>
<path d="M312.062 25L284.062 25" stroke="url(#paint0_linear_104_321)" stroke-width="2"/>
<path d="M236.161 29.8358C236.442 29.8358 236.692 29.7413 237.012 29.5586L244.612 25.225C245.181 24.9038 245.438 24.6329 245.438 24.1983C245.438 23.77 245.181 23.4991 244.612 23.1716L237.012 18.8379C236.692 18.6553 236.442 18.5608 236.161 18.5608C235.604 18.5608 235.188 18.9828 235.188 19.6568V28.7398C235.188 29.4201 235.604 29.8358 236.161 29.8358Z" fill="#F1A738"/>
<circle cx="238.938" cy="24.1983" r="12" stroke="#F1A738" stroke-width="2"/>
<path d="M0 25H28" stroke="#F1A738" stroke-width="2"/>
<defs>
<linearGradient id="paint0_linear_104_321" x1="284.062" y1="25" x2="308.813" y2="25" gradientUnits="userSpaceOnUse">
<stop stop-color="#F1A738"/>
<stop offset="1" stop-color="#F1A738" stop-opacity="0"/>
</linearGradient>
</defs>
</svg>
