<svg width="514" height="514" viewBox="0 0 514 514" fill="none" xmlns="http://www.w3.org/2000/svg">
<path opacity="0.949" fill-rule="evenodd" clip-rule="evenodd" d="M354.374 43.69C354.645 44.4932 355.216 44.8739 356.088 44.8322C356.523 45.8388 357.285 46.4099 358.372 46.5456C358.988 47.7123 359.94 48.4738 361.228 48.83C362.136 50.048 363.279 50.9998 364.654 51.6856C366.939 54.3508 369.413 56.8256 372.079 59.11C379.7 68.2484 385.887 78.3376 390.64 89.3789C393.537 97.7828 396.487 106.159 399.492 114.508C398.992 114.937 398.421 115.222 397.779 115.364C388.756 116.003 379.808 115.527 370.937 113.937C365.401 93.0494 353.979 76.2016 336.67 63.3933C326.316 56.2182 314.893 51.7446 302.403 49.9722C299.584 49.4263 298.156 50.5685 298.12 53.3989C297.737 75.3004 298.022 97.1934 298.977 119.077C290.584 118.531 282.208 118.341 273.848 118.506C273.002 95.7553 272.431 73.0063 272.134 50.2578C272.551 42.2942 272.837 34.2034 272.991 25.9856C273.133 25.3436 273.419 24.7725 273.848 24.2722C275.753 23.4438 277.752 23.0631 279.844 23.13C298.872 24.4988 317.433 28.211 335.528 34.2667C342.159 36.8207 348.441 39.9618 354.374 43.69Z" fill="#F1A738" fill-opacity="0.09"/>
<path opacity="0.949" fill-rule="evenodd" clip-rule="evenodd" d="M149.917 59.11C150.923 58.6748 151.494 57.913 151.63 56.8256C162.13 46.8146 174.124 39.1046 187.61 33.6956C204.523 27.0694 222.038 24.0234 240.152 24.5578C241.133 24.7554 242.085 25.0409 243.008 25.4144C243.904 65.1404 244.666 104.833 245.292 144.491C245.337 152.546 245.147 160.636 244.721 168.763C239.303 168.939 233.973 168.368 228.73 167.05C226.395 167.411 224.11 167.982 221.877 168.763C221.431 168.061 221.145 167.3 221.02 166.479C220.917 137.97 221.203 109.509 221.877 81.0978C221.957 70.6967 221.576 60.3219 220.734 49.9722C211.801 50.0164 203.425 52.2057 195.606 56.54C186.222 62.7611 177.465 69.8046 169.334 77.6711C168.55 78.1708 167.694 78.4564 166.764 78.5278C159.377 76.0337 152.048 73.3684 144.777 70.5322C144.158 70.0382 144.063 69.4671 144.491 68.8189C146.024 65.3671 147.833 62.1306 149.917 59.11Z" fill="#F1A738" fill-opacity="0.09"/>
<path opacity="0.01" fill-rule="evenodd" clip-rule="evenodd" d="M350.948 40.8344C351.709 41.2152 351.709 41.2152 350.948 40.8344V40.8344Z" fill="#F1A738" fill-opacity="0.09"/>
<path opacity="0.01" fill-rule="evenodd" clip-rule="evenodd" d="M352.661 41.9767C353.422 42.3574 353.422 42.3574 352.661 41.9767V41.9767Z" fill="#F1A738" fill-opacity="0.09"/>
<path opacity="0.01" fill-rule="evenodd" clip-rule="evenodd" d="M167.621 42.5478C168.382 42.9285 168.382 42.9285 167.621 42.5478V42.5478Z" fill="#F1A738" fill-opacity="0.09"/>
<path opacity="0.01" fill-rule="evenodd" clip-rule="evenodd" d="M354.375 43.1189C355.136 43.4997 355.136 43.4997 354.375 43.1189V43.1189Z" fill="#F1A738" fill-opacity="0.09"/>
<path opacity="0.01" fill-rule="evenodd" clip-rule="evenodd" d="M356.088 44.2611C356.849 44.6419 356.849 44.6419 356.088 44.2611V44.2611Z" fill="#F1A738" fill-opacity="0.09"/>
<path opacity="0.01" fill-rule="evenodd" clip-rule="evenodd" d="M163.052 45.4033C163.814 45.7841 163.814 45.7841 163.052 45.4033V45.4033Z" fill="#F1A738" fill-opacity="0.09"/>
<path opacity="0.01" fill-rule="evenodd" clip-rule="evenodd" d="M358.372 45.9744C359.133 46.3552 359.133 46.3552 358.372 45.9744V45.9744Z" fill="#F1A738" fill-opacity="0.09"/>
<path opacity="0.01" fill-rule="evenodd" clip-rule="evenodd" d="M161.339 46.5456C162.1 46.9263 162.1 46.9263 161.339 46.5456V46.5456Z" fill="#F1A738" fill-opacity="0.09"/>
<path opacity="0.01" fill-rule="evenodd" clip-rule="evenodd" d="M361.228 48.2589C361.989 48.6396 361.989 48.6396 361.228 48.2589V48.2589Z" fill="#F1A738" fill-opacity="0.09"/>
<path opacity="0.01" fill-rule="evenodd" clip-rule="evenodd" d="M364.654 51.1144C365.416 51.4952 365.416 51.4952 364.654 51.1144V51.1144Z" fill="#F1A738" fill-opacity="0.09"/>
<path opacity="0.01" fill-rule="evenodd" clip-rule="evenodd" d="M151.63 56.8256C151.249 56.0641 151.249 56.0641 151.63 56.8256V56.8256Z" fill="#F1A738" fill-opacity="0.09"/>
<path opacity="0.01" fill-rule="evenodd" clip-rule="evenodd" d="M149.917 59.11C149.536 58.3487 149.536 58.3487 149.917 59.11V59.11Z" fill="#F1A738" fill-opacity="0.09"/>
<path opacity="0.01" fill-rule="evenodd" clip-rule="evenodd" d="M372.079 58.5389C372.84 58.9198 372.84 58.9198 372.079 58.5389V58.5389Z" fill="#F1A738" fill-opacity="0.09"/>
<path opacity="0.01" fill-rule="evenodd" clip-rule="evenodd" d="M191.037 60.2522C191.798 60.6332 191.798 60.6332 191.037 60.2522V60.2522Z" fill="#F1A738" fill-opacity="0.09"/>
<path opacity="0.01" fill-rule="evenodd" clip-rule="evenodd" d="M181.899 67.1056C182.66 67.4865 182.66 67.4865 181.899 67.1056V67.1056Z" fill="#F1A738" fill-opacity="0.09"/>
<path opacity="0.01" fill-rule="evenodd" clip-rule="evenodd" d="M179.043 69.39C179.805 69.7709 179.805 69.7709 179.043 69.39V69.39Z" fill="#F1A738" fill-opacity="0.09"/>
<path opacity="0.943" fill-rule="evenodd" clip-rule="evenodd" d="M407.488 165.337C409.601 164.473 411.505 163.331 413.199 161.91C414.187 161.61 414.949 161.038 415.483 160.197C417.958 158.864 419.862 156.96 421.194 154.486C428.27 143.711 429.317 132.289 424.335 120.219C422.129 115.453 419.178 111.264 415.483 107.654C411.619 103.149 406.86 99.9125 401.205 97.9455C397.215 89.9654 393.217 81.9699 389.212 73.9589C410.585 73.5523 428.004 81.9287 441.469 99.0878C452.275 115.914 454.369 133.808 447.751 152.772C440.132 171.147 426.901 183.521 408.059 189.894C407.488 181.717 407.298 173.532 407.488 165.337Z" fill="#F1A738" fill-opacity="0.09"/>
<path opacity="0.01" fill-rule="evenodd" clip-rule="evenodd" d="M174.474 73.3878C175.236 73.7687 175.236 73.7687 174.474 73.3878V73.3878Z" fill="#F1A738" fill-opacity="0.09"/>
<path opacity="0.94" fill-rule="evenodd" clip-rule="evenodd" d="M121.361 77.3856C142.519 76.0537 161.365 81.8602 177.901 94.8044C186.306 101.428 190.684 110.09 191.037 120.79C182.821 121.434 174.636 121.148 166.479 119.933C159.997 108.971 150.288 103.07 137.352 102.229C123.228 100.209 111.33 104.302 101.658 114.508C99.5693 118.399 98.1415 122.492 97.3745 126.787C92.3339 128.374 87.8598 130.182 83.9534 132.212C83.7632 132.022 83.5724 131.831 83.3823 131.641C81.7112 132.73 79.9025 133.586 77.9567 134.211C76.6694 134.868 75.337 135.059 73.9589 134.782C72.5637 101.436 88.3646 82.3034 121.361 77.3856Z" fill="#F1A738" fill-opacity="0.09"/>
<path opacity="0.933" fill-rule="evenodd" clip-rule="evenodd" d="M350.948 85.3811C352.143 85.4159 352.999 85.9871 353.518 87.0944C356.659 92.2344 359.8 97.3744 362.941 102.514C356 108.97 351.907 116.966 350.662 126.501C349.163 139.926 348.877 153.347 349.806 166.764C349.545 167.001 349.354 167.286 349.234 167.621C340.867 168.192 332.491 168.382 324.106 168.192C324.357 156.747 325.023 145.324 326.104 133.926C327.857 121.434 331.665 109.631 337.527 98.5167C341.184 93.2413 345.657 88.8626 350.948 85.3811Z" fill="#F1A738" fill-opacity="0.09"/>
<path opacity="0.01" fill-rule="evenodd" clip-rule="evenodd" d="M401.206 97.9456C400.825 98.3265 400.825 98.3265 401.206 97.9456V97.9456Z" fill="#F1A738" fill-opacity="0.09"/>
<path opacity="0.915" fill-rule="evenodd" clip-rule="evenodd" d="M121.932 105.941C129.74 105.846 137.545 105.941 145.348 106.227C145.633 106.512 145.919 106.798 146.204 107.083C146.048 128.014 145.858 148.954 145.633 169.906C145.42 170.429 145.134 170.905 144.777 171.333C136.787 172.969 129.077 172.112 121.647 168.763C121.175 147.782 121.27 126.841 121.932 105.941Z" fill="#F1A738" fill-opacity="0.09"/>
<path opacity="0.01" fill-rule="evenodd" clip-rule="evenodd" d="M415.483 107.654C415.102 108.035 415.102 108.035 415.483 107.654V107.654Z" fill="#F1A738" fill-opacity="0.09"/>
<path opacity="0.906" fill-rule="evenodd" clip-rule="evenodd" d="M356.659 121.361C378.158 121.293 399.669 121.673 421.194 122.503C421.032 126.812 421.223 131.095 421.765 135.353C421.511 138.548 420.75 141.594 419.481 144.491C398.35 144.872 377.219 144.872 356.088 144.491C355.802 144.206 355.517 143.92 355.231 143.634C355.024 136.143 355.5 128.719 356.659 121.361Z" fill="#F1A738" fill-opacity="0.09"/>
<path opacity="0.924" fill-rule="evenodd" clip-rule="evenodd" d="M282.414 123.074C285.27 123.836 288.126 123.836 290.981 123.074C299.527 122.699 308.093 122.795 316.681 123.36C317.143 123.536 317.523 123.821 317.823 124.217C317.516 131.999 317.421 139.803 317.538 147.632C317.116 148.246 316.545 148.627 315.824 148.774C295.373 148.399 274.909 148.018 254.43 147.632C253.672 139.525 253.672 131.434 254.43 123.36C263.756 123.074 273.084 122.979 282.414 123.074Z" fill="#F1A738" fill-opacity="0.09"/>
<path opacity="0.11" fill-rule="evenodd" clip-rule="evenodd" d="M290.981 123.074C288.126 123.836 285.27 123.836 282.414 123.074C285.187 122.394 288.043 122.394 290.981 123.074Z" fill="#F1A738" fill-opacity="0.09"/>
<path opacity="0.92" fill-rule="evenodd" clip-rule="evenodd" d="M167.621 125.359C183.232 125.264 198.843 125.359 214.452 125.644C214.833 126.025 215.213 126.406 215.594 126.787C214.904 132.177 214.904 137.602 215.594 143.063C215.575 145.043 215.195 146.947 214.452 148.774C193.512 149.558 172.571 150.129 151.63 150.488C150.936 142.299 150.746 134.113 151.059 125.93C156.683 126.117 162.203 125.927 167.621 125.359Z" fill="#F1A738" fill-opacity="0.09"/>
<path opacity="0.95" fill-rule="evenodd" clip-rule="evenodd" d="M43.1189 170.477C44.5376 169.163 45.6798 167.64 46.5456 165.908C50.353 161.72 54.3508 157.722 58.5389 153.914C75.7294 141.196 94.957 133.01 116.221 129.357C115.972 137.178 115.591 144.983 115.079 152.772C106.843 154.035 99.0376 156.605 91.6634 160.482C67.5985 175.1 51.9884 196.041 44.8323 223.304C67.6716 224.004 90.516 224.29 113.366 224.161C112.869 232.336 112.679 240.522 112.795 248.719C84.9951 248.699 57.2008 249.079 29.4123 249.861C26.4162 249.854 23.4654 249.664 20.5601 249.29C20.6397 220.783 28.1593 194.512 43.1189 170.477Z" fill="#F1A738" fill-opacity="0.09"/>
<path opacity="0.943" fill-rule="evenodd" clip-rule="evenodd" d="M468.597 150.488C470.5 152.772 472.594 154.866 474.879 156.77C475.015 157.857 475.586 158.619 476.592 159.054C476.728 160.142 477.299 160.904 478.306 161.339C478.441 162.426 479.013 163.188 480.019 163.623C480.925 166.012 482.258 168.107 484.017 169.906C485.633 173.521 487.536 176.947 489.728 180.186C494.703 191.209 498.606 202.631 501.436 214.452C503.494 222.995 503.779 231.562 502.292 240.152C491.669 241.279 481.008 241.946 470.31 242.151C431.905 242.924 393.45 243.019 354.946 242.437C354.679 234.434 354.298 226.439 353.803 218.45C394.642 218.924 435.381 219.114 476.021 219.021C476.819 214.58 476.533 210.201 475.164 205.886C471.735 194.076 466.215 183.416 458.602 173.903C455.491 170.698 452.159 167.843 448.608 165.337C452.098 158.356 454.953 151.122 457.174 143.634C458.138 143.025 459.09 143.12 460.03 143.92C462.978 146.014 465.833 148.203 468.597 150.488Z" fill="#F1A738" fill-opacity="0.09"/>
<path opacity="0.01" fill-rule="evenodd" clip-rule="evenodd" d="M468.597 149.917C469.358 150.298 469.358 150.298 468.597 149.917V149.917Z" fill="#F1A738" fill-opacity="0.09"/>
<path opacity="0.939" fill-rule="evenodd" clip-rule="evenodd" d="M273.277 152.772C281.872 151.78 290.439 151.589 298.977 152.201C298.89 170.207 298.319 188.197 297.263 206.171C297.299 211.04 297.489 215.894 297.834 220.734C304.476 221.269 311.139 221.46 317.823 221.306C317.305 226.452 317.496 231.592 318.394 236.726C318.484 238.839 318.104 240.838 317.252 242.722C302.584 243.4 287.925 243.495 273.277 243.008C273.711 213.14 273.711 183.062 273.277 152.772Z" fill="#F1A738" fill-opacity="0.09"/>
<path opacity="0.01" fill-rule="evenodd" clip-rule="evenodd" d="M273.277 152.772C272.896 152.011 272.896 152.011 273.277 152.772V152.772Z" fill="#F1A738" fill-opacity="0.09"/>
<path opacity="0.921" fill-rule="evenodd" clip-rule="evenodd" d="M376.077 152.201C384.246 152.582 392.432 152.962 400.634 153.343C401.041 157.825 401.422 162.298 401.777 166.764C401.447 176.52 401.447 186.419 401.777 196.462C401.77 202.494 401.389 208.395 400.634 214.167C392.12 214.115 383.839 213.829 375.791 213.31C375.29 199.25 375.004 185.162 374.934 171.048C374.947 164.636 375.328 158.354 376.077 152.201Z" fill="#F1A738" fill-opacity="0.09"/>
<path opacity="0.01" fill-rule="evenodd" clip-rule="evenodd" d="M58.5389 153.914C58.1579 153.153 58.1579 153.153 58.5389 153.914V153.914Z" fill="#F1A738" fill-opacity="0.09"/>
<path opacity="0.01" fill-rule="evenodd" clip-rule="evenodd" d="M421.194 154.486C420.813 153.724 420.813 153.724 421.194 154.486V154.486Z" fill="#F1A738" fill-opacity="0.09"/>
<path opacity="0.926" fill-rule="evenodd" clip-rule="evenodd" d="M172.761 154.486C180.541 154.385 188.347 154.575 196.177 155.057C196.272 175.427 196.177 195.797 195.891 216.166C194.423 216.689 192.9 217.069 191.322 217.308C184.514 215.842 177.756 215.461 171.048 216.166C171.358 195.785 171.358 175.415 171.048 155.057C171.785 155.192 172.356 155.002 172.761 154.486Z" fill="#F1A738" fill-opacity="0.09"/>
<path opacity="0.01" fill-rule="evenodd" clip-rule="evenodd" d="M474.879 156.199C475.64 156.58 475.64 156.58 474.879 156.199V156.199Z" fill="#F1A738" fill-opacity="0.09"/>
<path opacity="0.01" fill-rule="evenodd" clip-rule="evenodd" d="M476.592 158.483C477.353 158.864 477.353 158.864 476.592 158.483V158.483Z" fill="#F1A738" fill-opacity="0.09"/>
<path opacity="0.01" fill-rule="evenodd" clip-rule="evenodd" d="M415.483 160.197C415.102 159.435 415.102 159.435 415.483 160.197V160.197Z" fill="#F1A738" fill-opacity="0.09"/>
<path opacity="0.01" fill-rule="evenodd" clip-rule="evenodd" d="M478.877 161.339C478.496 160.578 478.496 160.578 478.877 161.339V161.339Z" fill="#F1A738" fill-opacity="0.09"/>
<path opacity="0.01" fill-rule="evenodd" clip-rule="evenodd" d="M49.4011 161.339C50.1626 161.72 50.1626 161.72 49.4011 161.339V161.339Z" fill="#F1A738" fill-opacity="0.09"/>
<path opacity="0.01" fill-rule="evenodd" clip-rule="evenodd" d="M413.199 161.91C412.818 161.149 412.818 161.149 413.199 161.91V161.91Z" fill="#F1A738" fill-opacity="0.09"/>
<path opacity="0.01" fill-rule="evenodd" clip-rule="evenodd" d="M478.877 161.339C479.638 161.72 479.638 161.72 478.877 161.339V161.339Z" fill="#F1A738" fill-opacity="0.09"/>
<path opacity="0.931" fill-rule="evenodd" clip-rule="evenodd" d="M101.943 163.623C104.569 165.703 107.424 167.511 110.51 169.049C126.6 175.025 143.162 176.834 160.197 174.474C161.752 174.504 163.275 174.694 164.766 175.046C165.189 182.667 165.569 190.282 165.908 197.89C147.608 199.595 129.522 198.358 111.652 194.178C102.529 192.035 94.6285 187.752 87.9511 181.328C85.3982 177.842 83.2086 174.129 81.3833 170.191C82.3119 169.152 83.4541 168.391 84.81 167.907C89.2521 166.352 93.6308 164.638 97.9455 162.767C99.4104 162.419 100.743 162.704 101.943 163.623Z" fill="#F1A738" fill-opacity="0.09"/>
<path opacity="0.01" fill-rule="evenodd" clip-rule="evenodd" d="M101.943 163.052C102.705 163.433 102.705 163.433 101.943 163.052V163.052Z" fill="#F1A738" fill-opacity="0.09"/>
<path opacity="0.01" fill-rule="evenodd" clip-rule="evenodd" d="M480.019 163.052C480.78 163.433 480.78 163.433 480.019 163.052V163.052Z" fill="#F1A738" fill-opacity="0.09"/>
<path opacity="0.01" fill-rule="evenodd" clip-rule="evenodd" d="M407.488 165.337C407.107 164.575 407.107 164.575 407.488 165.337V165.337Z" fill="#F1A738" fill-opacity="0.09"/>
<path opacity="0.01" fill-rule="evenodd" clip-rule="evenodd" d="M481.161 164.766C481.922 165.146 481.922 165.146 481.161 164.766V164.766Z" fill="#F1A738" fill-opacity="0.09"/>
<path opacity="0.01" fill-rule="evenodd" clip-rule="evenodd" d="M46.5456 165.908C46.1648 165.146 46.1648 165.146 46.5456 165.908V165.908Z" fill="#F1A738" fill-opacity="0.09"/>
<path opacity="0.01" fill-rule="evenodd" clip-rule="evenodd" d="M482.303 166.479C483.065 166.86 483.065 166.86 482.303 166.479V166.479Z" fill="#F1A738" fill-opacity="0.09"/>
<path opacity="0.01" fill-rule="evenodd" clip-rule="evenodd" d="M484.017 169.334C484.778 169.715 484.778 169.715 484.017 169.334V169.334Z" fill="#F1A738" fill-opacity="0.09"/>
<path opacity="0.01" fill-rule="evenodd" clip-rule="evenodd" d="M43.1189 170.477C42.7382 169.715 42.7382 169.715 43.1189 170.477V170.477Z" fill="#F1A738" fill-opacity="0.09"/>
<path opacity="0.01" fill-rule="evenodd" clip-rule="evenodd" d="M302.974 171.048C302.593 170.286 302.593 170.286 302.974 171.048V171.048Z" fill="#F1A738" fill-opacity="0.09"/>
<path opacity="0.932" fill-rule="evenodd" clip-rule="evenodd" d="M302.974 171.048C325.08 171.29 347.353 171.29 369.794 171.048C369.709 178.67 369.518 186.285 369.223 193.892C362.775 194.672 356.303 195.148 349.806 195.32C334.844 195.423 319.9 195.708 304.973 196.177C304.475 196.042 303.998 195.852 303.546 195.606C302.975 187.428 302.784 179.243 302.974 171.048Z" fill="#F1A738" fill-opacity="0.09"/>
<path opacity="0.01" fill-rule="evenodd" clip-rule="evenodd" d="M40.8345 172.19C41.5959 172.571 41.5959 172.571 40.8345 172.19V172.19Z" fill="#F1A738" fill-opacity="0.09"/>
<path opacity="0.01" fill-rule="evenodd" clip-rule="evenodd" d="M485.73 172.19C486.491 172.571 486.491 172.571 485.73 172.19V172.19Z" fill="#F1A738" fill-opacity="0.09"/>
<path opacity="0.917" fill-rule="evenodd" clip-rule="evenodd" d="M201.317 174.474C222.645 174.31 243.966 174.596 265.281 175.331C265.771 175.725 266.151 176.2 266.423 176.759C265.854 183.597 265.76 190.451 266.138 197.319C252.328 198 238.527 198.381 224.732 198.461C217.096 198.188 209.481 197.712 201.888 197.033C201.168 195.769 200.788 194.342 200.746 192.75C200.476 189.137 200.286 185.52 200.174 181.899C200.212 179.28 200.592 176.805 201.317 174.474Z" fill="#F1A738" fill-opacity="0.09"/>
<path opacity="0.01" fill-rule="evenodd" clip-rule="evenodd" d="M489.728 179.614C490.489 179.995 490.489 179.995 489.728 179.614V179.614Z" fill="#F1A738" fill-opacity="0.09"/>
<path opacity="0.01" fill-rule="evenodd" clip-rule="evenodd" d="M66.5344 181.899C67.2957 182.28 67.2957 182.28 66.5344 181.899V181.899Z" fill="#F1A738" fill-opacity="0.09"/>
<path opacity="0.941" fill-rule="evenodd" clip-rule="evenodd" d="M322.392 200.746C331.572 200.379 340.615 200.759 349.52 201.888C349.451 222.368 348.976 242.833 348.092 263.282C339.906 263.663 331.72 263.663 323.534 263.282C323.249 262.997 322.963 262.711 322.678 262.426C322.392 241.867 322.297 221.307 322.392 200.746Z" fill="#F1A738" fill-opacity="0.09"/>
<path opacity="0.942" fill-rule="evenodd" clip-rule="evenodd" d="M241.866 201.888C242.627 201.888 243.389 201.888 244.15 201.888C244.759 213.493 244.854 225.105 244.436 236.726C244.402 239.592 243.926 242.352 243.008 245.007C213.717 246.587 184.4 247.158 155.057 246.72C154.06 238.12 153.679 229.458 153.914 220.734C172.671 221.091 191.423 221.662 210.169 222.448C213.135 222.381 216.086 222.191 219.021 221.877C218.926 215.972 219.021 210.071 219.307 204.172C219.592 203.887 219.878 203.601 220.163 203.316C227.465 202.695 234.699 202.219 241.866 201.888Z" fill="#F1A738" fill-opacity="0.09"/>
<path opacity="0.908" fill-rule="evenodd" clip-rule="evenodd" d="M119.648 204.743C128.164 204.558 136.635 204.748 145.062 205.314C146.043 225.24 146.138 245.133 145.348 264.996C137.362 265.662 129.367 265.948 121.361 265.852C120.803 265.58 120.327 265.199 119.933 264.71C119.769 254.806 119.483 244.907 119.077 235.012C118.99 224.906 119.181 214.817 119.648 204.743Z" fill="#F1A738" fill-opacity="0.09"/>
<path opacity="0.916" fill-rule="evenodd" clip-rule="evenodd" d="M379.503 248.719C386.535 249.135 393.579 249.421 400.634 249.576C400.92 249.861 401.206 250.147 401.491 250.432C401.323 260.597 401.418 270.782 401.777 280.987C401.778 291.833 401.301 302.59 400.349 313.254C391.995 313.329 383.523 313.234 374.934 312.969C374.554 312.398 374.173 311.827 373.792 311.256C373.715 290.853 373.81 270.389 374.078 249.861C375.945 249.5 377.754 249.119 379.503 248.719Z" fill="#F1A738" fill-opacity="0.09"/>
<path opacity="0.931" fill-rule="evenodd" clip-rule="evenodd" d="M179.043 251.003C182.91 251.681 186.813 251.681 190.751 251.003C192.912 251.141 195.006 251.522 197.033 252.146C196.871 271.931 196.68 291.729 196.462 311.541C196.177 311.827 195.891 312.112 195.606 312.398C187.886 312.529 180.176 312.815 172.476 313.254C171.584 313.196 170.727 313.005 169.906 312.683C169.557 293.11 169.366 273.597 169.334 254.144C169.434 253.198 169.815 252.436 170.477 251.86C173.437 251.761 176.293 251.475 179.043 251.003Z" fill="#F1A738" fill-opacity="0.09"/>
<path opacity="0.946" fill-rule="evenodd" clip-rule="evenodd" d="M478.877 349.234C477.458 350.548 476.316 352.071 475.45 353.803C475.069 353.803 474.879 353.994 474.879 354.374C473.5 355.18 472.548 356.323 472.023 357.801C471.642 357.801 471.452 357.991 471.452 358.372C471.071 358.372 470.881 358.562 470.881 358.943C470.5 358.943 470.31 359.134 470.31 359.514C469.929 359.514 469.739 359.705 469.739 360.086C467.835 361.609 466.122 363.322 464.599 365.226C464.218 365.226 464.028 365.416 464.028 365.797C462.549 366.322 461.407 367.274 460.601 368.652C445.791 380.449 429.038 386.731 410.343 387.499C409.201 387.404 408.059 387.309 406.917 387.213C406.631 386.928 406.346 386.642 406.06 386.357C406.095 379.128 406.286 371.894 406.631 364.654C412.707 362.344 418.895 360.155 425.192 358.087C443.063 351.775 457.055 340.639 467.169 324.677C473.251 313.863 476.202 302.25 476.021 289.839C452.98 289.947 429.945 290.233 406.917 290.696C405.849 283.095 405.659 275.48 406.346 267.851C433.695 267.959 461.014 267.102 488.3 265.281C493.194 265.512 498.048 265.988 502.863 266.709C503.221 267.137 503.506 267.614 503.72 268.137C504.233 287.845 500.426 306.691 492.298 324.677C488.39 333.259 483.917 341.446 478.877 349.234Z" fill="#F1A738" fill-opacity="0.09"/>
<path opacity="0.939" fill-rule="evenodd" clip-rule="evenodd" d="M352.661 269.279C358.372 269.279 364.083 269.279 369.794 269.279C369.436 277.107 368.865 284.912 368.081 292.694C345.29 292.883 322.541 292.693 299.833 292.123C299.597 292.384 299.311 292.575 298.977 292.694C298.406 299.538 298.216 306.391 298.406 313.254C290.224 312.909 282.038 312.719 273.848 312.683C273.523 306.028 273.333 299.365 273.277 292.694C273.16 285.494 273.541 278.355 274.419 271.278C300.588 270.525 326.669 269.859 352.661 269.279Z" fill="#F1A738" fill-opacity="0.09"/>
<path opacity="0.95" fill-rule="evenodd" clip-rule="evenodd" d="M216.737 271.563C226.081 271.389 235.409 271.674 244.721 272.42C245.007 272.706 245.292 272.991 245.578 273.277C245.783 302.976 246.069 332.674 246.434 362.37C238.459 362.498 230.274 362.498 221.877 362.37C221.864 339.74 221.864 317.181 221.877 294.693C215.594 294.503 209.312 294.312 203.03 294.122C202.744 293.837 202.459 293.551 202.173 293.266C201.664 287.175 201.188 281.084 200.746 274.99C200.831 273.951 201.212 273.094 201.888 272.42C206.938 272.323 211.888 272.037 216.737 271.563Z" fill="#F1A738" fill-opacity="0.09"/>
<path opacity="0.942" fill-rule="evenodd" clip-rule="evenodd" d="M54.5411 368.652C54.1057 367.646 53.3443 367.075 52.2566 366.939C50.9241 365.226 49.4011 363.702 47.6878 362.37C45.5343 359.388 43.2499 356.532 40.8344 353.803C28.4065 333.183 20.3157 310.909 16.5622 286.983C16.1512 282.965 16.2463 278.967 16.8478 274.99C65.732 274.441 114.848 274.06 164.194 273.848C164.065 278.717 164.256 283.571 164.766 288.411C164.486 291.308 164.105 294.164 163.623 296.978C123.836 298.57 84.0481 298.665 44.2611 297.263C44.232 306.856 46.6116 315.803 51.4 324.106C53.4941 327.342 55.5881 330.578 57.6822 333.814C62.6383 339.626 67.6829 345.337 72.8167 350.948C70.0776 358.328 67.0313 365.562 63.6789 372.65C60.4692 371.615 57.4235 370.282 54.5411 368.652Z" fill="#F1A738" fill-opacity="0.09"/>
<path opacity="0.927" fill-rule="evenodd" clip-rule="evenodd" d="M328.103 298.406C334.947 298.86 341.8 299.05 348.663 298.977C349.327 319.216 349.327 339.586 348.663 360.086C341.98 360.192 335.317 360.573 328.674 361.228C327.68 360.8 326.728 360.609 325.819 360.657C325.514 340.101 325.514 319.541 325.819 298.977C326.732 299.13 327.493 298.939 328.103 298.406Z" fill="#F1A738" fill-opacity="0.09"/>
<path opacity="0.913" fill-rule="evenodd" clip-rule="evenodd" d="M121.932 302.403C129.589 302.524 137.394 302.715 145.348 302.974C146.227 323.526 146.798 344.086 147.061 364.654C138.494 364.654 129.928 364.654 121.361 364.654C120.907 344.206 120.526 323.646 120.219 302.974C120.956 303.11 121.527 302.92 121.932 302.403Z" fill="#F1A738" fill-opacity="0.09"/>
<path opacity="0.925" fill-rule="evenodd" clip-rule="evenodd" d="M318.394 342.381C296.034 343.89 273.57 344.27 251.003 343.523C251.098 336.376 250.908 329.238 250.432 322.107C250.622 320.679 250.813 319.251 251.003 317.823C251.636 317.525 252.302 317.335 253.002 317.252C274.467 317.709 295.884 318.184 317.252 318.68C317.538 318.966 317.823 319.251 318.109 319.537C318.264 325.922 318.549 332.299 318.966 338.669C318.878 339.934 318.688 341.172 318.394 342.381Z" fill="#F1A738" fill-opacity="0.09"/>
<path opacity="0.931" fill-rule="evenodd" clip-rule="evenodd" d="M421.195 352.09C420.575 350.898 419.623 350.137 418.339 349.806C414.676 347.406 410.678 345.597 406.346 344.38C389.283 339.883 371.959 338.455 354.375 340.097C354.375 333.053 354.375 326.009 354.375 318.966C369.067 318.615 383.725 319.091 398.35 320.393C411.599 321.636 423.783 325.825 434.901 332.958C437.814 335.468 440.099 338.419 441.755 341.81C441.693 342.348 441.503 342.824 441.183 343.238C435.969 345.406 431.019 348.071 426.335 351.233C424.68 352.336 422.967 352.622 421.195 352.09Z" fill="#F1A738" fill-opacity="0.09"/>
<path opacity="0.932" fill-rule="evenodd" clip-rule="evenodd" d="M199.032 320.108C204.556 320.013 210.077 320.108 215.594 320.393C215.88 320.679 216.166 320.964 216.451 321.25C216.696 327.755 217.172 334.228 217.879 340.668C217.689 341.049 217.498 341.429 217.308 341.81C195.035 342.294 172.762 342.675 150.488 342.952C150.318 335.627 149.938 328.202 149.346 320.679C166.005 320.868 182.568 320.678 199.032 320.108Z" fill="#F1A738" fill-opacity="0.09"/>
<path opacity="0.944" fill-rule="evenodd" clip-rule="evenodd" d="M107.654 356.659C98.4275 364.168 93.6685 373.973 93.3766 386.071C93.0608 396.469 96.6777 405.131 104.228 412.057C104.762 412.898 105.524 413.47 106.512 413.77C107.898 414.945 109.421 415.992 111.081 416.911C114.557 418.184 118.079 419.231 121.647 420.052C124.198 428.356 126.387 436.732 128.214 445.181C111.851 443.254 97.3824 437.067 84.81 426.62C69.2575 410.94 64.403 392.378 70.2466 370.937C75.0297 353.983 84.6432 340.562 99.0877 330.673C103.334 327.891 107.903 326.464 112.794 326.39C113.041 326.843 113.231 327.319 113.366 327.818C112.834 335.894 112.359 343.985 111.938 352.09C111.748 352.661 111.557 353.232 111.367 353.803C110.023 354.677 108.786 355.629 107.654 356.659Z" fill="#F1A738" fill-opacity="0.09"/>
<path opacity="0.01" fill-rule="evenodd" clip-rule="evenodd" d="M318.394 342.381C319.156 342.762 319.156 342.762 318.394 342.381V342.381Z" fill="#F1A738" fill-opacity="0.09"/>
<path opacity="0.01" fill-rule="evenodd" clip-rule="evenodd" d="M483.446 342.381C484.207 342.762 484.207 342.762 483.446 342.381V342.381Z" fill="#F1A738" fill-opacity="0.09"/>
<path opacity="0.912" fill-rule="evenodd" clip-rule="evenodd" d="M377.219 344.094C384.656 345.016 392.08 346.064 399.492 347.236C400.309 347.501 400.975 347.977 401.491 348.663C400.962 369.37 399.915 390.025 398.35 410.629C389.782 410.534 381.215 410.153 372.65 409.487C372.364 409.201 372.079 408.916 371.793 408.63C371.412 406.155 371.412 403.68 371.793 401.206C373.791 382.182 375.599 363.146 377.219 344.094Z" fill="#F1A738" fill-opacity="0.09"/>
<path opacity="0.947" fill-rule="evenodd" clip-rule="evenodd" d="M364.654 465.741C342.04 480.74 317.292 490.543 290.41 495.153C286.983 495.534 283.557 495.534 280.13 495.153C278.977 494.896 277.93 494.421 276.989 493.726C275.963 490.778 275.391 487.732 275.276 484.588C275.129 475.729 274.844 466.877 274.419 458.031C274.922 438.333 275.303 418.63 275.561 398.921C275.391 381.883 274.63 364.94 273.277 348.092C281.252 347.377 289.248 346.996 297.263 346.95C297.147 387.499 296.957 428.048 296.692 468.597C299.452 468.668 302.118 468.192 304.688 467.169C321.874 460.137 337.675 450.904 352.09 439.47C353.306 440.022 354.449 440.689 355.517 441.469C362.37 443.563 369.223 445.657 376.077 447.751C378.793 448.362 379.841 449.98 379.218 452.606C374.591 457.328 369.737 461.706 364.654 465.741Z" fill="#F1A738" fill-opacity="0.09"/>
<path opacity="0.01" fill-rule="evenodd" clip-rule="evenodd" d="M478.877 349.234C479.638 349.615 479.638 349.615 478.877 349.234V349.234Z" fill="#F1A738" fill-opacity="0.09"/>
<path opacity="0.01" fill-rule="evenodd" clip-rule="evenodd" d="M418.339 349.806C417.958 350.186 417.958 350.186 418.339 349.806V349.806Z" fill="#F1A738" fill-opacity="0.09"/>
<path opacity="0.01" fill-rule="evenodd" clip-rule="evenodd" d="M37.9789 350.377C38.7403 350.758 38.7403 350.758 37.9789 350.377V350.377Z" fill="#F1A738" fill-opacity="0.09"/>
<path opacity="0.936" fill-rule="evenodd" clip-rule="evenodd" d="M174.474 351.519C175.925 352.619 177.257 352.619 178.472 351.519C182.955 351.563 187.429 351.373 191.893 350.948C193.393 350.994 194.725 351.375 195.891 352.09C197.745 368.909 196.413 385.471 191.893 401.777C189.012 412.402 183.586 421.445 175.617 428.904C173.62 430.38 171.525 431.712 169.334 432.902C168.401 433.184 167.449 433.279 166.479 433.188C163.779 426.741 160.542 420.554 156.77 414.627C157.98 414.028 158.931 413.171 159.626 412.057C161.707 411.117 163.23 409.594 164.194 407.488C166.236 405.126 167.854 402.46 169.049 399.492C171.578 391.702 172.815 383.706 172.761 375.506C172.494 368.932 172.113 362.364 171.619 355.802C171.809 354.374 172 352.947 172.19 351.519C173.044 350.831 173.805 350.831 174.474 351.519Z" fill="#F1A738" fill-opacity="0.09"/>
<path opacity="0.01" fill-rule="evenodd" clip-rule="evenodd" d="M477.734 350.948C478.496 351.329 478.496 351.329 477.734 350.948V350.948Z" fill="#F1A738" fill-opacity="0.09"/>
<path opacity="0.24" fill-rule="evenodd" clip-rule="evenodd" d="M178.472 351.519C177.258 352.619 175.925 352.619 174.474 351.519C175.926 351.319 177.258 351.319 178.472 351.519Z" fill="#F1A738" fill-opacity="0.09"/>
<path opacity="0.01" fill-rule="evenodd" clip-rule="evenodd" d="M39.1211 352.09C39.8826 352.471 39.8826 352.471 39.1211 352.09V352.09Z" fill="#F1A738" fill-opacity="0.09"/>
<path opacity="0.01" fill-rule="evenodd" clip-rule="evenodd" d="M421.194 352.09C420.813 352.471 420.813 352.471 421.194 352.09V352.09Z" fill="#F1A738" fill-opacity="0.09"/>
<path opacity="0.01" fill-rule="evenodd" clip-rule="evenodd" d="M40.8344 353.803C40.4536 354.184 40.4536 354.184 40.8344 353.803V353.803Z" fill="#F1A738" fill-opacity="0.09"/>
<path opacity="0.01" fill-rule="evenodd" clip-rule="evenodd" d="M475.45 353.803C476.211 354.184 476.211 354.184 475.45 353.803V353.803Z" fill="#F1A738" fill-opacity="0.09"/>
<path opacity="0.01" fill-rule="evenodd" clip-rule="evenodd" d="M474.879 354.374C475.069 354.374 475.26 354.374 475.45 354.374C475.344 354.757 475.154 354.757 474.879 354.374Z" fill="#F1A738" fill-opacity="0.09"/>
<path opacity="0.01" fill-rule="evenodd" clip-rule="evenodd" d="M41.4055 355.517C42.167 355.898 42.167 355.898 41.4055 355.517V355.517Z" fill="#F1A738" fill-opacity="0.09"/>
<path opacity="0.01" fill-rule="evenodd" clip-rule="evenodd" d="M107.654 356.659C108.416 357.04 108.416 357.04 107.654 356.659V356.659Z" fill="#F1A738" fill-opacity="0.09"/>
<path opacity="0.01" fill-rule="evenodd" clip-rule="evenodd" d="M43.1189 357.801C43.8804 358.182 43.8804 358.182 43.1189 357.801V357.801Z" fill="#F1A738" fill-opacity="0.09"/>
<path opacity="0.01" fill-rule="evenodd" clip-rule="evenodd" d="M472.023 357.801C472.785 358.182 472.785 358.182 472.023 357.801V357.801Z" fill="#F1A738" fill-opacity="0.09"/>
<path opacity="0.01" fill-rule="evenodd" clip-rule="evenodd" d="M471.452 358.372C471.642 358.372 471.833 358.372 472.023 358.372C471.918 358.755 471.727 358.755 471.452 358.372Z" fill="#F1A738" fill-opacity="0.09"/>
<path opacity="0.01" fill-rule="evenodd" clip-rule="evenodd" d="M470.881 358.943C471.071 358.943 471.262 358.943 471.452 358.943C471.347 359.326 471.156 359.326 470.881 358.943Z" fill="#F1A738" fill-opacity="0.09"/>
<path opacity="0.01" fill-rule="evenodd" clip-rule="evenodd" d="M470.31 359.514C470.5 359.514 470.691 359.514 470.881 359.514C470.776 359.897 470.585 359.897 470.31 359.514Z" fill="#F1A738" fill-opacity="0.09"/>
<path opacity="0.01" fill-rule="evenodd" clip-rule="evenodd" d="M469.739 360.086C469.929 360.086 470.12 360.086 470.31 360.086C470.204 360.468 470.014 360.468 469.739 360.086Z" fill="#F1A738" fill-opacity="0.09"/>
<path opacity="0.01" fill-rule="evenodd" clip-rule="evenodd" d="M47.6878 362.37C47.307 362.751 47.307 362.751 47.6878 362.37V362.37Z" fill="#F1A738" fill-opacity="0.09"/>
<path opacity="0.01" fill-rule="evenodd" clip-rule="evenodd" d="M464.599 365.226C465.36 365.606 465.36 365.606 464.599 365.226V365.226Z" fill="#F1A738" fill-opacity="0.09"/>
<path opacity="0.01" fill-rule="evenodd" clip-rule="evenodd" d="M464.028 365.797C464.218 365.797 464.409 365.797 464.599 365.797C464.493 366.179 464.303 366.179 464.028 365.797Z" fill="#F1A738" fill-opacity="0.09"/>
<path opacity="0.01" fill-rule="evenodd" clip-rule="evenodd" d="M52.2566 366.939C51.8759 367.32 51.8759 367.32 52.2566 366.939V366.939Z" fill="#F1A738" fill-opacity="0.09"/>
<path opacity="0.933" fill-rule="evenodd" clip-rule="evenodd" d="M329.817 367.51C342.899 367.81 356.034 368.191 369.223 368.652C369.535 369.379 369.725 370.141 369.794 370.937C369.471 378.013 368.9 385.057 368.081 392.068C346.951 392.908 325.82 393.099 304.688 392.639C304.64 384.646 304.64 376.65 304.688 368.652C313.156 368.271 321.532 367.891 329.817 367.51Z" fill="#F1A738" fill-opacity="0.09"/>
<path opacity="0.909" fill-rule="evenodd" clip-rule="evenodd" d="M103.657 368.081C115.973 368.23 128.252 368.23 140.493 368.081C142.058 368.528 143.677 368.813 145.348 368.938C152.011 369.128 158.674 369.319 165.337 369.509C166.182 370.251 166.562 371.203 166.479 372.364C165.794 379.917 164.938 387.437 163.909 394.923C163.623 395.209 163.338 395.494 163.052 395.78C161.339 395.875 159.626 395.97 157.912 396.066C139.066 395.634 120.22 395.538 101.372 395.78C101.087 395.494 100.801 395.209 100.516 394.923C100.474 386.358 100.665 377.791 101.087 369.223C102.013 368.881 102.87 368.5 103.657 368.081Z" fill="#F1A738" fill-opacity="0.09"/>
<path opacity="0.01" fill-rule="evenodd" clip-rule="evenodd" d="M54.5411 368.652C54.1603 369.033 54.1603 369.033 54.5411 368.652V368.652Z" fill="#F1A738" fill-opacity="0.09"/>
<path opacity="0.01" fill-rule="evenodd" clip-rule="evenodd" d="M460.601 368.652C461.362 369.033 461.362 369.033 460.601 368.652V368.652Z" fill="#F1A738" fill-opacity="0.09"/>
<path opacity="0.918" fill-rule="evenodd" clip-rule="evenodd" d="M204.743 369.794C206.838 370.556 208.931 370.556 211.026 369.794C230.772 369.669 250.476 369.669 270.136 369.794C270.467 378.148 269.991 386.429 268.708 394.638C247.011 395.448 225.309 395.638 203.601 395.209C201.906 395.13 200.954 394.273 200.746 392.639C201.201 385.229 201.486 377.805 201.602 370.366C202.527 369.148 203.575 368.958 204.743 369.794Z" fill="#F1A738" fill-opacity="0.09"/>
<path opacity="0.112" fill-rule="evenodd" clip-rule="evenodd" d="M211.026 369.794C208.931 370.556 206.838 370.556 204.743 369.794C206.895 369.458 208.988 369.458 211.026 369.794Z" fill="#F1A738" fill-opacity="0.09"/>
<path opacity="0.944" fill-rule="evenodd" clip-rule="evenodd" d="M363.512 408.059C367.113 411.287 371.301 413.477 376.077 414.627C384.467 416.277 392.843 416.086 401.206 414.056C404.995 413.115 408.232 411.307 410.914 408.63C413.918 406.485 416.679 404.01 419.196 401.206C422.778 397.243 425.919 392.96 428.619 388.356C433.188 387.023 437.757 385.69 442.326 384.358C445.087 383.265 447.562 381.742 449.75 379.789C450.398 379.361 450.969 379.456 451.463 380.074C452.238 383.751 451.953 387.368 450.607 390.926C444.813 406.233 435.961 419.464 424.05 430.618C415.001 438.077 404.531 441.694 392.639 441.469C379.218 443.262 366.464 441.167 354.374 435.187C347.912 430.747 342.676 425.131 338.669 418.339C334.784 411.139 331.072 403.905 327.532 396.637C336.684 396.508 345.821 396.794 354.946 397.493C357.291 401.454 360.146 404.975 363.512 408.059Z" fill="#F1A738" fill-opacity="0.09"/>
<path opacity="0.949" fill-rule="evenodd" clip-rule="evenodd" d="M170.477 474.879C170.041 473.873 169.28 473.301 168.192 473.166C167.573 471.974 166.621 471.212 165.337 470.881C164.717 469.689 163.766 468.928 162.481 468.597C160.921 466.464 159.018 464.751 156.77 463.457C153.936 459.67 150.699 456.243 147.061 453.177C137.31 441.03 129.029 427.894 122.218 413.77C120.995 410.768 119.948 407.722 119.077 404.632C126.554 403.382 133.978 401.859 141.35 400.063C141.921 400.349 142.492 400.634 143.063 400.92C153.899 427.552 171.794 447.922 196.748 462.029C204.654 466.092 213.03 468.472 221.877 469.168C221.989 446.7 221.799 424.236 221.306 401.777C229.091 401.446 236.896 401.446 244.721 401.777C245.085 418.797 245.085 435.74 244.721 452.606C245.049 464.541 245.43 476.439 245.863 488.3C245.843 490.08 245.653 491.888 245.292 493.726C225.979 497.371 207.513 494.801 189.894 486.016C183.182 482.614 176.709 478.902 170.477 474.879Z" fill="#F1A738" fill-opacity="0.09"/>
<path opacity="0.01" fill-rule="evenodd" clip-rule="evenodd" d="M164.194 407.488C163.813 406.726 163.813 406.726 164.194 407.488V407.488Z" fill="#F1A738" fill-opacity="0.09"/>
<path opacity="0.01" fill-rule="evenodd" clip-rule="evenodd" d="M363.512 407.488C364.273 407.869 364.273 407.869 363.512 407.488V407.488Z" fill="#F1A738" fill-opacity="0.09"/>
<path opacity="0.01" fill-rule="evenodd" clip-rule="evenodd" d="M410.914 408.63C410.533 407.869 410.533 407.869 410.914 408.63V408.63Z" fill="#F1A738" fill-opacity="0.09"/>
<path opacity="0.01" fill-rule="evenodd" clip-rule="evenodd" d="M104.228 411.486C104.989 411.866 104.989 411.866 104.228 411.486V411.486Z" fill="#F1A738" fill-opacity="0.09"/>
<path opacity="0.01" fill-rule="evenodd" clip-rule="evenodd" d="M159.626 412.057C159.245 411.295 159.245 411.295 159.626 412.057V412.057Z" fill="#F1A738" fill-opacity="0.09"/>
<path opacity="0.01" fill-rule="evenodd" clip-rule="evenodd" d="M106.512 413.199C107.273 413.58 107.273 413.58 106.512 413.199V413.199Z" fill="#F1A738" fill-opacity="0.09"/>
<path opacity="0.01" fill-rule="evenodd" clip-rule="evenodd" d="M174.474 445.181C175.236 445.562 175.236 445.562 174.474 445.181V445.181Z" fill="#F1A738" fill-opacity="0.09"/>
<path opacity="0.01" fill-rule="evenodd" clip-rule="evenodd" d="M147.061 453.177C146.68 453.558 146.68 453.558 147.061 453.177V453.177Z" fill="#F1A738" fill-opacity="0.09"/>
<path opacity="0.01" fill-rule="evenodd" clip-rule="evenodd" d="M184.183 453.177C184.945 453.558 184.945 453.558 184.183 453.177V453.177Z" fill="#F1A738" fill-opacity="0.09"/>
<path opacity="0.01" fill-rule="evenodd" clip-rule="evenodd" d="M156.77 463.457C156.77 463.647 156.77 463.838 156.77 464.028C156.387 463.753 156.387 463.562 156.77 463.457Z" fill="#F1A738" fill-opacity="0.09"/>
<path opacity="0.01" fill-rule="evenodd" clip-rule="evenodd" d="M156.77 464.028C157.151 464.028 157.341 464.218 157.341 464.599C157.151 464.409 156.96 464.218 156.77 464.028Z" fill="#F1A738" fill-opacity="0.09"/>
<path opacity="0.01" fill-rule="evenodd" clip-rule="evenodd" d="M157.341 464.599C158.102 464.98 158.102 464.98 157.341 464.599V464.599Z" fill="#F1A738" fill-opacity="0.09"/>
<path opacity="0.01" fill-rule="evenodd" clip-rule="evenodd" d="M364.654 465.741C365.416 466.122 365.416 466.122 364.654 465.741V465.741Z" fill="#F1A738" fill-opacity="0.09"/>
<path opacity="0.01" fill-rule="evenodd" clip-rule="evenodd" d="M162.481 468.597C162.481 468.787 162.481 468.978 162.481 469.168C162.098 468.893 162.098 468.702 162.481 468.597Z" fill="#F1A738" fill-opacity="0.09"/>
<path opacity="0.01" fill-rule="evenodd" clip-rule="evenodd" d="M162.481 469.168C163.242 469.549 163.242 469.549 162.481 469.168V469.168Z" fill="#F1A738" fill-opacity="0.09"/>
<path opacity="0.01" fill-rule="evenodd" clip-rule="evenodd" d="M165.337 470.881C165.337 471.071 165.337 471.262 165.337 471.452C164.954 471.178 164.954 470.987 165.337 470.881Z" fill="#F1A738" fill-opacity="0.09"/>
<path opacity="0.01" fill-rule="evenodd" clip-rule="evenodd" d="M165.337 471.452C166.098 471.833 166.098 471.833 165.337 471.452V471.452Z" fill="#F1A738" fill-opacity="0.09"/>
<path opacity="0.01" fill-rule="evenodd" clip-rule="evenodd" d="M168.192 473.166C167.811 473.546 167.811 473.546 168.192 473.166V473.166Z" fill="#F1A738" fill-opacity="0.09"/>
<path opacity="0.01" fill-rule="evenodd" clip-rule="evenodd" d="M352.09 473.737C352.851 474.118 352.851 474.118 352.09 473.737V473.737Z" fill="#F1A738" fill-opacity="0.09"/>
<path opacity="0.01" fill-rule="evenodd" clip-rule="evenodd" d="M170.477 474.879C170.096 475.26 170.096 475.26 170.477 474.879V474.879Z" fill="#F1A738" fill-opacity="0.09"/>
<path opacity="0.01" fill-rule="evenodd" clip-rule="evenodd" d="M172.19 476.592C172.951 476.973 172.951 476.973 172.19 476.592V476.592Z" fill="#F1A738" fill-opacity="0.09"/>
<path opacity="0.01" fill-rule="evenodd" clip-rule="evenodd" d="M178.472 480.59C179.233 480.971 179.233 480.971 178.472 480.59V480.59Z" fill="#F1A738" fill-opacity="0.09"/>
<path opacity="0.01" fill-rule="evenodd" clip-rule="evenodd" d="M337.241 481.161C338.002 481.542 338.002 481.542 337.241 481.161V481.161Z" fill="#F1A738" fill-opacity="0.09"/>
<path opacity="0.01" fill-rule="evenodd" clip-rule="evenodd" d="M182.47 482.874C183.231 483.255 183.231 483.255 182.47 482.874V482.874Z" fill="#F1A738" fill-opacity="0.09"/>
<path opacity="0.01" fill-rule="evenodd" clip-rule="evenodd" d="M333.243 482.874C334.005 483.255 334.005 483.255 333.243 482.874V482.874Z" fill="#F1A738" fill-opacity="0.09"/>
<path opacity="0.01" fill-rule="evenodd" clip-rule="evenodd" d="M183.612 483.446C184.373 483.827 184.373 483.827 183.612 483.446V483.446Z" fill="#F1A738" fill-opacity="0.09"/>
</svg>
