<svg width="80" height="80" viewBox="0 0 80 80" fill="none" xmlns="http://www.w3.org/2000/svg">
<path d="M66.4366 2.90404e-06L52.8733 2.31116e-06L52.8733 5.26631L52.8733 10.5326L50.4938 10.5326L48.1142 10.5326L48.1142 5.26631L48.1142 2.10314e-06L24.0333 1.05053e-06L0 0L0.142772 2.5374L0.285544 5.02693L21.3682 5.17056L42.4033 5.26631L42.4033 7.89946L42.4033 10.5326L23.843 10.5326L5.28257 10.5326L5.28257 13.1658L5.28257 15.7989L23.843 15.7989L42.3557 15.7989L42.4985 21.2089L42.6413 26.5709L48.019 26.7145L53.3492 26.8582L53.3492 32.0766L53.3492 37.3429L58.3462 37.3429L63.3432 37.3429L63.3432 55.775L63.3432 74.2071L66.1987 74.2071L69.0541 74.2071L69.0541 55.775L69.0541 37.3429L71.4337 37.3429L73.8132 37.3429L73.9084 58.5518L74.0512 79.7127L77.0494 79.8564L80 80L80 56.0144L80 32.0766L74.5271 32.0766L69.0541 32.0766L69.0541 29.4435L69.0541 26.8103L74.5271 26.8103L80 26.8103L80 13.4052L80 3.49691e-06L66.4366 2.90404e-06ZM71.4337 20.5865L69.1017 20.5865L68.959 15.4638L68.8162 10.2932L64.533 10.1975C62.2011 10.1496 59.8691 10.1017 59.4408 10.1017C58.727 10.0539 58.5842 9.62298 58.5842 7.66009L58.5842 5.26631L66.1987 5.26631L73.8132 5.26631L73.8132 12.9264L73.8132 20.5865L71.4337 20.5865ZM60.9637 20.5865L58.5842 20.5865L58.5842 18.1927L58.5842 15.7989L60.9637 15.7989L63.3432 15.7989L63.3432 18.1927L63.3432 20.5865L60.9637 20.5865ZM60.9637 31.5978L58.5842 31.5978L58.5842 29.2041L58.5842 26.8103L60.9637 26.8103L63.3432 26.8103L63.3432 29.2041L63.3432 31.5978L60.9637 31.5978ZM50.4938 20.5865L48.1142 20.5865L48.1142 18.1927L48.1142 15.7989L50.4938 15.7989L52.8733 15.7989L52.8733 18.1927L52.8733 20.5865L50.4938 20.5865Z" fill="#F1A738" fill-opacity="0.4"/>
</svg>
