<svg width="80" height="80" viewBox="0 0 80 80" fill="none" xmlns="http://www.w3.org/2000/svg">
<path d="M13.5634 80L27.1267 80L27.1267 74.7337L27.1267 69.4674L29.5062 69.4674L31.8858 69.4674L31.8858 74.7337L31.8858 80L55.9667 80L80 80L79.8572 77.4626L79.7145 74.9731L58.6318 74.8294L37.5967 74.7337L37.5967 72.1005L37.5967 69.4674L56.157 69.4674L74.7174 69.4674L74.7174 66.8342L74.7174 64.2011L56.157 64.2011L37.6443 64.2011L37.5015 58.7911L37.3587 53.4291L31.981 53.2855L26.6508 53.1418L26.6508 47.9234L26.6508 42.6571L21.6538 42.6571L16.6567 42.6571L16.6567 24.225L16.6567 5.79294L13.8013 5.79294L10.9459 5.79294L10.9459 24.225L10.9459 42.6571L8.56633 42.6571L6.18679 42.6571L6.0916 21.4482L5.94883 0.287258L2.95062 0.143627L-3.49691e-06 3.49691e-06L-2.44847e-06 23.9856L-1.40211e-06 47.9234L5.47293 47.9234L10.9459 47.9234L10.9459 50.5566L10.9459 53.1897L5.47293 53.1897L-1.17192e-06 53.1897L-5.85958e-07 66.5949L0 80L13.5634 80ZM8.56633 59.4135L10.8983 59.4135L11.041 64.5362L11.1838 69.7068L15.467 69.8025C17.7989 69.8504 20.1309 69.8983 20.5592 69.8983C21.273 69.9461 21.4158 70.377 21.4158 72.3399L21.4158 74.7337L13.8013 74.7337L6.18679 74.7337L6.18679 67.0736L6.18679 59.4135L8.56633 59.4135ZM19.0363 59.4135L21.4158 59.4135L21.4158 61.8073L21.4158 64.2011L19.0363 64.2011L16.6567 64.2011L16.6567 61.8073L16.6567 59.4135L19.0363 59.4135ZM19.0363 48.4022L21.4158 48.4022L21.4158 50.7959L21.4158 53.1897L19.0363 53.1897L16.6567 53.1897L16.6567 50.7959L16.6567 48.4022L19.0363 48.4022ZM29.5062 59.4135L31.8858 59.4135L31.8858 61.8073L31.8858 64.2011L29.5062 64.2011L27.1267 64.2011L27.1267 61.8073L27.1267 59.4135L29.5062 59.4135Z" fill="#F1A738" fill-opacity="0.4"/>
</svg>
